<svg width="129" height="101" viewBox="0 0 129 101" fill="none" xmlns="http://www.w3.org/2000/svg">
<path fill-rule="evenodd" clip-rule="evenodd" d="M91.84 8.24249C91.9269 7.6606 91.851 7.06603 91.6208 6.52461C91.3905 5.98319 91.015 5.51605 90.5356 5.17492C90.0563 4.83379 89.4919 4.63198 88.9049 4.59184C88.3179 4.5517 87.7313 4.67479 87.21 4.94749L39.83 29.8225C39.2772 30.1102 38.8212 30.554 38.5185 31.0988C38.2158 31.6435 38.0799 32.2652 38.1275 32.8865C38.1752 33.5079 38.4044 34.1015 38.7866 34.5937C39.1689 35.0859 39.6873 35.455 40.2775 35.655L55 40.7025L82.5 15L60.245 42.5L81.735 49.8675C82.1763 50.018 82.6453 50.0699 83.1088 50.0195C83.5723 49.9692 84.0192 49.8179 84.4179 49.5762C84.8167 49.3345 85.1576 49.0084 85.4167 48.6207C85.6758 48.2331 85.8467 47.7933 85.9175 47.3325L91.84 8.24249ZM57.08 44.0575V52.2325C57.0803 52.8463 57.2579 53.4469 57.5915 53.9621C57.925 54.4773 58.4004 54.8852 58.9603 55.1366C59.5202 55.388 60.1408 55.4723 60.7475 55.3793C61.3542 55.2864 61.9211 55.0201 62.38 54.6125L69.475 48.3075L57.08 44.0575Z" fill="white"/>
<path d="M129 94.2626C127.793 94.7674 126.624 95.0198 125.494 95.0198C124.342 95.0198 123.327 94.7729 122.449 94.2791C121.582 93.7853 120.902 93.0994 120.408 92.2215C119.925 91.3327 119.683 90.3012 119.683 89.127V81.8515H116.803V78.2302H119.897V74.1151H123.733V78.2302H128.424V81.8515H123.733V88.3863C123.733 89.319 123.985 90.0542 124.49 90.592C125.006 91.1297 125.648 91.3985 126.416 91.3985C127.096 91.3985 127.771 91.19 128.44 90.773L129 94.2626Z" fill="white"/>
<path d="M115.124 92.1557C114.323 93.0665 113.352 93.7743 112.21 94.2791C111.069 94.7729 109.824 95.0198 108.474 95.0198C106.806 95.0198 105.308 94.6467 103.98 93.9005C102.663 93.1543 101.621 92.1392 100.853 90.8553C100.096 89.5604 99.717 88.0955 99.717 86.4604C99.717 84.8253 100.096 83.3658 100.853 82.0819C101.621 80.7871 102.663 79.7665 103.98 79.0203C105.308 78.2741 106.806 77.901 108.474 77.901C109.813 77.901 111.047 78.1479 112.177 78.6417C113.319 79.1355 114.29 79.8324 115.091 80.7322L112.721 83.2506C112.227 82.7129 111.629 82.2959 110.926 81.9996C110.235 81.7033 109.5 81.5552 108.721 81.5552C107.777 81.5552 106.938 81.7637 106.202 82.1807C105.478 82.5977 104.907 83.1738 104.49 83.909C104.084 84.6443 103.881 85.4892 103.881 86.4439C103.881 87.3986 104.084 88.2491 104.49 88.9953C104.907 89.7305 105.478 90.3121 106.202 90.7401C106.938 91.1571 107.777 91.3656 108.721 91.3656C109.5 91.3656 110.241 91.2174 110.943 90.9212C111.645 90.6139 112.238 90.1969 112.721 89.6702L115.124 92.1557Z" fill="white"/>
<path d="M96.573 92.7812C94.521 94.2736 92.2769 95.0198 89.8407 95.0198C88.074 95.0198 86.4883 94.6357 85.0837 93.8676C83.6791 93.0994 82.5653 92.0514 81.7422 90.7236C80.9302 89.3849 80.5242 87.8815 80.5242 86.2135C80.5242 84.6223 80.8918 83.2012 81.627 81.9503C82.3732 80.6993 83.3883 79.7116 84.6722 78.9874C85.9671 78.2631 87.4266 77.901 89.0506 77.901C90.7406 77.901 92.222 78.3015 93.495 79.1026C94.7789 79.8927 95.7775 80.9956 96.4907 82.4111C97.204 83.8158 97.5607 85.4508 97.5607 87.3163V87.8431H84.8862C85.0837 88.5893 85.4294 89.2477 85.9232 89.8183C86.428 90.3889 87.0535 90.8334 87.7997 91.1516C88.5459 91.4698 89.3853 91.629 90.3181 91.629C92.0739 91.629 93.698 91.0583 95.1904 89.9171L96.573 92.7812ZM84.7216 85.4728H93.8077C93.7199 84.6498 93.4675 83.931 93.0505 83.3165C92.6445 82.7019 92.1123 82.2246 91.4539 81.8844C90.8064 81.5333 90.0767 81.3577 89.2646 81.3577C88.4416 81.3577 87.7064 81.5333 87.0589 81.8844C86.4115 82.2356 85.8848 82.7239 85.4787 83.3494C85.0727 83.9639 84.8203 84.6717 84.7216 85.4728Z" fill="white"/>
<path d="M77.265 94.6906H72.3598L59.4878 76.7323V94.6906H55.1423V70H60.0475L72.9195 87.9747V70H77.265V94.6906Z" fill="white"/>
<path d="M37.7107 94.6906H34.1388V70H38.1881V80.2219C38.9123 79.4867 39.7518 78.916 40.7065 78.51C41.6722 78.104 42.7202 77.901 43.8504 77.901C45.3977 77.901 46.7749 78.2741 47.982 79.0203C49.1891 79.7665 50.1383 80.787 50.8296 82.0819C51.532 83.3658 51.8831 84.8253 51.8831 86.4604C51.8831 88.0954 51.532 89.5604 50.8296 90.8553C50.1383 92.1392 49.1891 93.1543 47.982 93.9005C46.7749 94.6467 45.3977 95.0198 43.8504 95.0198C42.6434 95.0198 41.5295 94.7893 40.509 94.3284C39.4994 93.8566 38.6325 93.2146 37.9083 92.4026L37.7107 94.6906ZM42.9616 91.382C43.8834 91.382 44.7009 91.168 45.4142 90.7401C46.1384 90.3121 46.7036 89.7305 47.1096 88.9953C47.5266 88.2491 47.7351 87.4041 47.7351 86.4604C47.7351 85.5167 47.5266 84.6772 47.1096 83.9419C46.7036 83.1957 46.1384 82.6087 45.4142 82.1807C44.7009 81.7417 43.8834 81.5223 42.9616 81.5223C42.0947 81.5223 41.3101 81.7198 40.6078 82.1148C39.9164 82.5099 39.3568 83.0476 38.9288 83.728C38.5008 84.4083 38.2539 85.182 38.1881 86.0489V86.839C38.2539 87.7169 38.4953 88.5015 38.9123 89.1928C39.3403 89.8732 39.9054 90.4109 40.6078 90.8059C41.3101 91.19 42.0947 91.382 42.9616 91.382Z" fill="white"/>
<path d="M22.1721 95.0198C20.4932 95.0198 18.9898 94.6467 17.662 93.9005C16.3452 93.1543 15.3027 92.1392 14.5345 90.8553C13.7773 89.5604 13.3988 88.0955 13.3988 86.4604C13.3988 84.8253 13.7773 83.3658 14.5345 82.0819C15.3027 80.7871 16.3452 79.7665 17.662 79.0203C18.9898 78.2741 20.4932 77.901 22.1721 77.901C23.8401 77.901 25.3325 78.2741 26.6494 79.0203C27.9662 79.7665 28.9977 80.7871 29.7439 82.0819C30.5011 83.3658 30.8797 84.8253 30.8797 86.4604C30.8797 88.0955 30.5011 89.5604 29.7439 90.8553C28.9977 92.1392 27.9662 93.1543 26.6494 93.9005C25.3325 94.6467 23.8401 95.0198 22.1721 95.0198ZM22.1392 91.3821C23.0171 91.3821 23.8017 91.1681 24.4931 90.7401C25.1844 90.3121 25.7276 89.725 26.1226 88.9788C26.5287 88.2326 26.7317 87.3877 26.7317 86.4439C26.7317 85.5112 26.5287 84.6772 26.1226 83.942C25.7276 83.1958 25.1844 82.6087 24.4931 82.1807C23.8017 81.7527 23.0171 81.5387 22.1392 81.5387C21.2723 81.5387 20.4877 81.7527 19.7854 82.1807C19.094 82.6087 18.5454 83.1958 18.1393 83.942C17.7443 84.6772 17.5468 85.5112 17.5468 86.4439C17.5468 87.3877 17.7443 88.2326 18.1393 88.9788C18.5454 89.725 19.094 90.3121 19.7854 90.7401C20.4877 91.1681 21.2723 91.3821 22.1392 91.3821Z" fill="white"/>
<path d="M0.213985 100.616L0 96.814C1.94232 96.814 3.39084 96.3476 4.34554 95.4148C5.30024 94.493 5.77759 93.0939 5.77759 91.2174V70H10.1231V91.1516C10.1231 93.3792 9.78295 95.1899 9.10259 96.5835C8.42223 97.9772 7.3523 98.9977 5.89282 99.6451C4.4443 100.293 2.55136 100.616 0.213985 100.616Z" fill="white"/>
</svg>
