<svg width="20" height="20" viewBox="0 0 20 20" fill="none" xmlns="http://www.w3.org/2000/svg">
<path d="M11.9583 1.66669H8.04167C7.17501 1.66669 6.46667 2.36669 6.46667 3.23335V4.01669C6.46667 4.88335 7.16667 5.58335 8.03334 5.58335H11.9583C12.825 5.58335 13.525 4.88335 13.525 4.01669V3.23335C13.5333 2.36669 12.825 1.66669 11.9583 1.66669Z" fill="#01888A"/>
<path d="M14.3666 4.01665C14.3666 5.34165 13.2833 6.42498 11.9583 6.42498H8.04164C6.71664 6.42498 5.63331 5.34165 5.63331 4.01665C5.63331 3.54998 5.1333 3.25832 4.71664 3.47498C3.54164 4.09998 2.74164 5.34165 2.74164 6.76665V14.6083C2.74164 16.6583 4.41664 18.3333 6.46664 18.3333H13.5333C15.5833 18.3333 17.2583 16.6583 17.2583 14.6083V6.76665C17.2583 5.34165 16.4583 4.09998 15.2833 3.47498C14.8666 3.25832 14.3666 3.54998 14.3666 4.01665ZM10.3166 14.125H6.66664C6.32497 14.125 6.04164 13.8416 6.04164 13.5C6.04164 13.1583 6.32497 12.875 6.66664 12.875H10.3166C10.6583 12.875 10.9416 13.1583 10.9416 13.5C10.9416 13.8416 10.6583 14.125 10.3166 14.125ZM12.5 10.7916H6.66664C6.32497 10.7916 6.04164 10.5083 6.04164 10.1666C6.04164 9.82498 6.32497 9.54165 6.66664 9.54165H12.5C12.8416 9.54165 13.125 9.82498 13.125 10.1666C13.125 10.5083 12.8416 10.7916 12.5 10.7916Z" fill="#01888A"/>
</svg>
