<svg width="20" height="20" viewBox="0 0 20 20" fill="none" xmlns="http://www.w3.org/2000/svg">
<path d="M11.6668 1.66666C13.3335 1.66666 14.1668 2.50832 14.1668 4.19166V10.0667C14.1668 11.725 12.9918 12.3667 11.5502 11.5L10.4502 10.8333C10.2002 10.6833 9.80016 10.6833 9.55016 10.8333L8.45016 11.5C7.0085 12.3667 5.8335 11.725 5.8335 10.0667V4.19166C5.8335 2.50832 6.66683 1.66666 8.3335 1.66666H11.6668Z" stroke="#01888A" stroke-width="1.5" stroke-linecap="round" stroke-linejoin="round"/>
<path d="M5.68317 4.15833C2.8415 4.63333 1.6665 6.38333 1.6665 9.91666V12.4417C1.6665 16.65 3.33317 18.3333 7.49984 18.3333H12.4998C16.6665 18.3333 18.3332 16.65 18.3332 12.4417V9.91666C18.3332 6.325 17.1165 4.56666 14.1665 4.13333" stroke="#01888A" stroke-width="1.5" stroke-linecap="round" stroke-linejoin="round"/>
</svg>
