<svg width="30" height="27" viewBox="0 0 30 27" fill="none" xmlns="http://www.w3.org/2000/svg">
<path d="M15.0001 17.5387C14.3751 17.5387 13.7488 17.3712 13.1901 17.0374L0.303817 9.30493C0.116317 9.19243 6.71619e-05 8.98868 6.71619e-05 8.76868C6.71619e-05 8.54868 0.115067 8.34493 0.303817 8.23243L13.1901 0.501179C14.3063 -0.170071 15.6938 -0.170071 16.8101 0.501179L29.6976 8.23368C29.8851 8.34618 30.0013 8.54993 30.0013 8.76993C30.0013 8.98993 29.8863 9.19368 29.6976 9.30618L16.8101 17.0387C16.2513 17.3737 15.6263 17.5387 15.0001 17.5387ZM1.84007 8.76993L13.8338 15.9662C14.5526 16.3987 15.4476 16.3987 16.1663 15.9662L28.1601 8.76993L16.1663 1.57368C15.4476 1.14118 14.5538 1.14118 13.8338 1.57368L1.84007 8.76993ZM30.0001 24.3749C30.0001 24.0299 29.7201 23.7499 29.3751 23.7499H19.3751C19.0301 23.7499 18.7501 24.0299 18.7501 24.3749C18.7501 24.7199 19.0301 24.9999 19.3751 24.9999H29.3751C29.7201 24.9999 30.0001 24.7199 30.0001 24.3749ZM15.3213 22.4112L29.6963 13.7862C29.9926 13.6087 30.0876 13.2249 29.9101 12.9287C29.7326 12.6324 29.3488 12.5337 29.0526 12.7137L14.9988 21.1462L0.946317 12.7137C0.651317 12.5324 0.266317 12.6337 0.0888172 12.9287C-0.0886828 13.2237 0.00756716 13.6087 0.302567 13.7862L14.6776 22.4112C14.7763 22.4712 14.8876 22.4999 14.9988 22.4999C15.1101 22.4999 15.2213 22.4712 15.3201 22.4112H15.3213ZM15.5351 26.5712C15.7126 26.2762 15.6163 25.8912 15.3213 25.7137L0.946317 17.0887C0.651317 16.9087 0.266317 17.0087 0.0888172 17.3037C-0.0886828 17.5987 0.00756716 17.9837 0.302567 18.1612L14.6776 26.7862C14.7788 26.8474 14.8888 26.8749 14.9988 26.8749C15.2113 26.8749 15.4176 26.7662 15.5351 26.5712Z" fill="#01888A"/>
</svg>
