<svg width="30" height="30" viewBox="0 0 30 30" fill="none" xmlns="http://www.w3.org/2000/svg">
<path d="M18.7501 13.125C18.7501 13.475 18.4751 13.75 18.1251 13.75H13.7501V18.125C13.7501 18.475 13.4751 18.75 13.1251 18.75C12.7751 18.75 12.5001 18.475 12.5001 18.125V13.75H8.1251C7.7751 13.75 7.5001 13.475 7.5001 13.125C7.5001 12.775 7.7751 12.5 8.1251 12.5H12.5001V8.125C12.5001 7.775 12.7751 7.5 13.1251 7.5C13.4751 7.5 13.7501 7.775 13.7501 8.125V12.5H18.1251C18.4751 12.5 18.7501 12.775 18.7501 13.125ZM30.0001 16.9375C30.0001 17.6625 29.4876 18.75 28.0626 18.75H27.3751L26.7251 21.7875C26.1751 24.375 23.8626 26.25 21.2251 26.25H19.9876V26.875C19.9876 28.6 18.5876 30 16.8626 30H6.8751C5.0376 30 3.7501 28.7125 3.7501 26.875V25.275C3.7501 24.125 3.3376 22.9375 2.5501 21.8625C0.700099 19.3 -0.1499 16.1625 0.0875995 12.7875C0.5501 6.6125 5.6251 1.0625 11.6501 0.162498C16.6751 -0.600002 21.6751 1.45 24.7126 5.5C26.4501 7.65 30.0001 15.3375 30.0001 16.9375ZM28.7501 16.9375C28.7501 15.85 25.4876 8.45 23.7376 6.275H23.7251C21.3501 3.075 17.6376 1.2625 13.7251 1.2625C13.1001 1.2625 12.4751 1.3125 11.8376 1.4C6.3626 2.2125 1.7501 7.2625 1.3376 12.875C1.1126 15.95 1.8751 18.8 3.5626 21.125C4.5001 22.425 5.0001 23.85 5.0001 25.275V26.875C5.0001 28.2625 6.0126 28.75 6.8751 28.75H16.8751C17.9126 28.75 18.7501 27.9125 18.7501 26.875V25.625C18.7501 25.275 19.0251 25 19.3751 25H21.2376C23.2876 25 25.0876 23.5375 25.5126 21.5375L26.2626 18C26.3251 17.7125 26.5751 17.5 26.8751 17.5H28.0751C28.6876 17.5 28.7626 17.1 28.7626 16.9375H28.7501Z" fill="#333A51"/>
</svg>
