<svg width="17" height="18" viewBox="0 0 17 18" fill="none" xmlns="http://www.w3.org/2000/svg">
<path d="M15.2 4.68336L10.4 1.32503C9.09166 0.408363 7.08333 0.458363 5.82499 1.43336L1.64999 4.6917C0.816659 5.3417 0.158325 6.67503 0.158325 7.72503V13.475C0.158325 15.6 1.88333 17.3334 4.00833 17.3334H12.9917C15.1167 17.3334 16.8417 15.6084 16.8417 13.4834V7.83336C16.8417 6.70836 16.1167 5.32503 15.2 4.68336ZM9.12499 14C9.12499 14.3417 8.84166 14.625 8.49999 14.625C8.15833 14.625 7.87499 14.3417 7.87499 14V11.5C7.87499 11.1584 8.15833 10.875 8.49999 10.875C8.84166 10.875 9.12499 11.1584 9.12499 11.5V14Z" fill="#01888A"/>
</svg>
