<svg width="30" height="29" viewBox="0 0 30 29" fill="none" xmlns="http://www.w3.org/2000/svg">
<path d="M24.375 0.25H5.625C2.52375 0.25 0 2.77375 0 5.875V22.125C0 25.2262 2.52375 27.75 5.625 27.75H8.125C8.47 27.75 8.75 27.47 8.75 27.125C8.75 26.78 8.47 26.5 8.125 26.5H5.625C3.2125 26.5 1.25 24.5375 1.25 22.125V10.25H28.75V22.125C28.75 24.5375 26.7875 26.5 24.375 26.5H21.875C21.53 26.5 21.25 26.78 21.25 27.125C21.25 27.47 21.53 27.75 21.875 27.75H24.375C27.4762 27.75 30 25.2262 30 22.125V5.875C30 2.77375 27.4762 0.25 24.375 0.25ZM1.25 9V5.875C1.25 3.4625 3.2125 1.5 5.625 1.5H24.375C26.7875 1.5 28.75 3.4625 28.75 5.875V9H1.25ZM6.25 5.25C6.25 5.94 5.69 6.5 5 6.5C4.31 6.5 3.75 5.94 3.75 5.25C3.75 4.56 4.31 4 5 4C5.69 4 6.25 4.56 6.25 5.25ZM10 5.25C10 5.94 9.44 6.5 8.75 6.5C8.06 6.5 7.5 5.94 7.5 5.25C7.5 4.56 8.06 4 8.75 4C9.44 4 10 4.56 10 5.25ZM13.75 5.25C13.75 5.94 13.19 6.5 12.5 6.5C11.81 6.5 11.25 5.94 11.25 5.25C11.25 4.56 11.81 4 12.5 4C13.19 4 13.75 4.56 13.75 5.25ZM22.5 18.375C22.5 20.7412 21.415 22.9187 19.525 24.3487C19.0325 24.7225 18.75 25.2713 18.75 25.8563V28.375C18.75 28.72 18.47 29 18.125 29C17.78 29 17.5 28.72 17.5 28.375V25.8563C17.5 24.8775 17.9625 23.9638 18.77 23.3525C20.3463 22.16 21.25 20.345 21.25 18.375C21.25 16.81 20.6663 15.3138 19.6087 14.1587C19.39 13.9212 19.1287 13.9963 19.0537 14.0275C18.9625 14.0625 18.7513 14.1775 18.7513 14.4725V16.3213C18.7513 18.3237 17.2725 20.0412 15.3862 20.23C14.325 20.3412 13.27 19.9913 12.4862 19.28C11.7025 18.5713 11.2525 17.5562 11.2525 16.4987V14.4712C11.2525 14.1762 11.0413 14.0612 10.95 14.0262C10.8738 13.9975 10.6137 13.9213 10.395 14.1575C9.33625 15.3125 8.7525 16.8088 8.7525 18.3737C8.7525 20.3438 9.65625 22.1588 11.2325 23.3513C12.04 23.9625 12.5025 24.8762 12.5025 25.855V28.3738C12.5025 28.7188 12.2225 28.9988 11.8775 28.9988C11.5325 28.9988 11.2525 28.7188 11.2525 28.3738V25.855C11.2525 25.27 10.97 24.7213 10.4775 24.3475C8.5875 22.9163 7.5025 20.7387 7.5025 18.3737C7.5025 16.495 8.2025 14.6987 9.47375 13.3125C9.96875 12.7725 10.725 12.595 11.4038 12.8612C12.0712 13.1213 12.5025 13.7525 12.5025 14.4712V16.4987C12.5025 17.2037 12.8025 17.8787 13.325 18.3525C13.8562 18.8325 14.5437 19.0588 15.2625 18.9862C16.5187 18.8588 17.5025 17.6887 17.5025 16.32V14.4712C17.5025 13.7525 17.9338 13.1213 18.6012 12.8612C19.28 12.5962 20.0362 12.7737 20.5312 13.3125C21.8025 14.6975 22.5025 16.495 22.5025 18.3737L22.5 18.375Z" fill="#333A51"/>
</svg>
