<svg width="20" height="20" viewBox="0 0 20 20" fill="none" xmlns="http://www.w3.org/2000/svg">
<path d="M10.1441 9C10.0541 8.99098 9.94595 8.99098 9.84685 9C7.7027 8.92785 6 7.16911 6 5.00451C6 2.79481 7.78378 1 10 1C12.2072 1 14 2.79481 14 5.00451C13.991 7.16911 12.2883 8.92785 10.1441 9Z" stroke="#333A51" stroke-width="1.5" stroke-linecap="round" stroke-linejoin="round"/>
<path d="M4.8629 12.2734C2.37903 13.7765 2.37903 16.2259 4.8629 17.7196C7.68548 19.4268 12.3145 19.4268 15.1371 17.7196C17.621 16.2166 17.621 13.7672 15.1371 12.2734C12.3248 10.5755 7.69575 10.5755 4.8629 12.2734Z" stroke="#333A51" stroke-width="1.5" stroke-linecap="round" stroke-linejoin="round"/>
</svg>
