<svg width="30" height="30" viewBox="0 0 30 30" fill="none" xmlns="http://www.w3.org/2000/svg">
<path d="M29.8176 28.9325L21.7638 20.8788C23.7726 18.66 25.0088 15.7288 25.0088 12.5075C25.0076 5.61501 19.4001 0.00750732 12.5076 0.00750732C5.61507 0.00750732 0.00756836 5.61501 0.00756836 12.5075C0.00756836 19.4 5.61507 25.0075 12.5076 25.0075C15.7288 25.0075 18.6601 23.7713 20.8788 21.7625L28.9326 29.8163C29.0551 29.9388 29.2151 29.9988 29.3751 29.9988C29.5351 29.9988 29.6951 29.9375 29.8176 29.8163C30.0613 29.5725 30.0613 29.1763 29.8176 28.9325ZM12.5076 23.7563C6.30507 23.7563 1.25757 18.71 1.25757 12.5063C1.25757 6.30251 6.30382 1.25751 12.5076 1.25751C18.7113 1.25751 23.7576 6.30376 23.7576 12.5075C23.7576 18.7113 18.7101 23.7575 12.5076 23.7575V23.7563ZM18.1251 8.74876C17.0913 8.74876 16.2501 9.59001 16.2501 10.6238V16.2488H14.3751V8.12376C14.3751 7.09001 13.5338 6.24876 12.5001 6.24876C11.4663 6.24876 10.6251 7.09001 10.6251 8.12376V16.2488H8.75007V11.8738C8.75007 10.84 7.90882 9.99876 6.87507 9.99876C5.84132 9.99876 5.00007 10.84 5.00007 11.8738V15.6238C5.00007 16.6575 5.84132 17.4988 6.87507 17.4988H18.1251C19.1588 17.4988 20.0001 16.6575 20.0001 15.6238V10.6238C20.0001 9.59001 19.1588 8.74876 18.1251 8.74876ZM7.50007 16.2488H6.87507C6.53007 16.2488 6.25007 15.9675 6.25007 15.6238V11.8738C6.25007 11.53 6.53007 11.2488 6.87507 11.2488C7.22007 11.2488 7.50007 11.53 7.50007 11.8738V16.2488ZM11.8751 8.12376C11.8751 7.78001 12.1551 7.49876 12.5001 7.49876C12.8451 7.49876 13.1251 7.78001 13.1251 8.12376V16.2488H11.8751V8.12376ZM18.7501 15.6238C18.7501 15.9675 18.4701 16.2488 18.1251 16.2488H17.5001V10.6238C17.5001 10.28 17.7801 9.99876 18.1251 9.99876C18.4701 9.99876 18.7501 10.28 18.7501 10.6238V15.6238Z" fill="#333A51"/>
</svg>
