<svg width="21" height="20" viewBox="0 0 21 20" fill="none" xmlns="http://www.w3.org/2000/svg">
<path d="M10.0834 17.5C14.4556 17.5 18 13.9556 18 9.58335C18 5.2111 14.4556 1.66669 10.0834 1.66669C5.7111 1.66669 2.16669 5.2111 2.16669 9.58335C2.16669 13.9556 5.7111 17.5 10.0834 17.5Z" fill="#01888A"/>
<path d="M18.25 18.3333C18.1 18.3333 17.95 18.275 17.8417 18.1667L16.2917 16.6167C16.0667 16.3917 16.0667 16.025 16.2917 15.7917C16.5167 15.5667 16.8833 15.5667 17.1167 15.7917L18.6667 17.3417C18.8917 17.5667 18.8917 17.9333 18.6667 18.1667C18.55 18.275 18.4 18.3333 18.25 18.3333Z" fill="#01888A"/>
</svg>
