<svg width="338" height="190" viewBox="0 0 338 190" fill="none" xmlns="http://www.w3.org/2000/svg">
<path d="M337.831 28.3928V179.491H0V63.5827V33.4443H8.83972V48.7969H8.72379L14.8671 55.9646H21.1017V18.822H35.444V28.3928H47.6159V46.8678H63.9682V23.6864H76.8714V33.4388H83.5815L89.3903 26.6619H95.9995V4.18867H114.477V37.5423H133.364V45.5817H140.685V33.4443H168.594V46.8678H179.268V28.3928H195.549V55.9646H196.502V18.822H210.85V28.3928H223.016V46.8678H239.363V23.6864H252.267V33.4388H258.987L264.796 26.6619H271.401V4.18867H289.873V37.5423H308.77V45.5817H316.091V33.4443H327.431V46.8678H332.311V28.3928H337.831Z" fill="url(#paint0_linear_234_2769)"/>
<path d="M0 126.159V50.5972H6.3736V64.4032H11.5093L16.4887 69.3937H70.6161L79.0376 60.951H96.0382V46.775H110.904V65.8902H138.283L148.833 55.3133H182.686V73.1369H197.728L205.049 65.796H223.573L228.818 71.0526H251.75V51.2984H268.063V57.8189H280.985V43.9935H292.849V64.8882H326.11L329.221 68.0064H337.831V126.159H0Z" fill="url(#paint1_linear_234_2769)"/>
<path d="M169.475 158.002C262.088 158.002 337.165 153.812 337.165 148.643C337.165 143.474 262.088 139.284 169.475 139.284C76.8619 139.284 1.78424 143.474 1.78424 148.643C1.78424 153.812 76.8619 158.002 169.475 158.002Z" fill="#ECEDF0"/>
<path d="M253.397 141.143C253.397 141.143 254.103 142.463 254.565 142.987C255.027 143.511 256.793 144.448 256.803 146.006C256.814 147.694 253.825 147.225 252.656 147.164C251.486 147.103 251.398 146.201 250.906 145.245C250.414 144.289 249.917 144.451 249.825 143.68C249.732 142.91 250.302 141.143 250.302 141.143H253.397Z" fill="#202338"/>
<path d="M235.604 140.989C235.604 140.989 234.164 142.601 232.701 142.939C231.239 143.277 230.216 143.708 230.204 144.632C230.193 145.557 234.412 146.167 236.087 145.234C238.585 143.842 238.838 144.261 239.115 143.565C239.392 142.87 238.782 141.008 238.8 140.788C238.822 140.515 235.604 140.989 235.604 140.989Z" fill="#202338"/>
<path d="M235.766 140.217C235.766 140.217 235.575 140.972 235.604 140.989C235.632 141.004 238.9 141.395 238.8 140.789C238.72 140.297 238.605 139.764 238.605 139.764L235.766 140.217Z" fill="#81807E"/>
<path d="M250.342 140.633C250.342 140.633 250.205 141.353 250.231 141.37C250.257 141.387 253.543 141.976 253.525 141.377C253.51 140.902 253.223 140.349 253.223 140.349L250.342 140.633Z" fill="#81807E"/>
<path d="M238.735 95.0045C238.735 95.0045 237.546 106.572 236.928 110.532C236.205 115.162 235.961 118.987 235.76 121.383C235.507 124.397 235.458 139.223 235.281 140.105C235.104 140.986 239.216 140.349 239.216 140.349C239.216 140.349 241.24 120.976 241.995 117.766C242.697 114.777 245.306 101.909 245.947 102.725C246.589 103.541 247.383 117.742 247.859 120.1C248.333 122.457 249.778 140.913 249.778 140.913C249.778 140.913 253.051 141.565 253.922 140.827C253.922 140.827 254.319 124.923 254.016 120.503C253.901 118.819 255.985 100.308 253.312 92.8564C251.9 88.9164 238.735 95.0045 238.735 95.0045Z" fill="#292C47"/>
<path d="M249.4 92.4407C249.4 92.4407 248.607 91.2392 247.769 91.0853C246.929 90.9315 259.333 84.9196 259.3 82.7729C259.275 81.0309 254.833 78.1413 254.833 78.1413C254.833 78.1413 254.833 78.1441 254.832 78.1483C254.83 78.1497 254.83 78.1524 254.83 78.1538C254.83 78.1566 254.829 78.1594 254.829 78.1607C254.735 78.5058 253.452 83.2774 253.408 85.571C253.361 87.9505 253.549 96.1368 253.549 96.1368L250.369 96.9905L240.214 97.0861L237.896 96.1368C237.896 96.1368 238.149 93.5051 238.243 91.6563C238.301 90.4811 238.529 88.3774 238.471 86.3277C238.471 86.3277 238.508 84.1671 238.294 83.2372C238.271 79.1309 238.023 75.0647 238.023 75.0647C237.885 73.2035 237.79 71.4629 237.736 69.8386C238.184 69.6016 238.723 69.3231 239.154 69.118C240.488 68.4819 242.346 67.624 243.539 67.0752C244.237 66.7537 244.921 66.5195 244.921 66.5195C244.921 66.5195 249.688 66.0608 250.075 66.0857C250.197 66.0926 250.792 66.3019 251.575 66.5998C253.265 67.2429 256.524 68.5525 257.042 68.9253C257.802 69.4714 262.786 82.6856 262.858 83.5933C262.989 85.2287 249.4 92.4407 249.4 92.4407Z" fill="#DBD8E3"/>
<path d="M238.203 95.2665C238.203 95.2665 245.179 95.8624 251.287 95.2665V97.276C251.287 97.276 242.19 98.1477 237.896 96.8921L238.203 95.2665Z" fill="#1D2033"/>
<path d="M237.625 69.8067C237.679 71.4572 237.758 73.2284 237.899 75.1256C237.899 75.1256 238.03 79.7558 238.297 84.149C238.387 84.7782 238.434 85.4212 238.383 86.0795C238.316 86.9387 238.224 87.8756 238.112 88.8554C238.11 88.8679 238.109 88.8803 238.107 88.8928C238.081 89.1256 238.052 89.3585 238.025 89.5941C238.025 89.5982 238.023 89.5996 238.023 89.6038C237.43 94.4973 236.426 100.111 235.901 101.81C235.791 102.165 236.172 102.494 236.444 102.746L238.352 103.952C238.352 103.952 239.139 96.6925 239.4 94.2284C239.652 91.8503 240.445 88.6614 240.792 85.5543V85.5529C241.233 81.6115 241.839 77.7491 242.166 75.4555C243.018 69.4824 244.153 66.8104 244.153 66.8104C243.611 66.9712 237.625 69.8067 237.625 69.8067Z" fill="#323657"/>
<path d="M257.876 82.1645C258.702 83.9827 250.284 87.2243 250.473 87.6733C250.928 88.7501 252.786 90.9425 252.786 90.9425C252.786 90.9425 263.871 85.4462 263.747 84.1989C263.657 83.2912 258.463 69.5739 257.703 69.0265C257.263 68.7105 254.008 67.5533 252.41 66.9227C252.118 66.8077 251.121 66.4321 250.86 66.3323C250.521 66.7107 248.185 69.2939 247.36 79.0587C247.22 80.7038 247.66 84.1892 247.953 87.033C248.265 90.0681 248.612 92.4365 248.867 94.974C249.367 99.9742 249.717 103.952 249.717 103.952L254.68 101.736C255.483 101.332 256.872 100.282 256.569 99.4337C255.422 96.2116 253.701 90.1055 253.698 87.2783C253.698 87.2783 254.51 79.4773 254.948 77.9556C254.951 77.9542 256.951 80.1314 257.876 82.1645Z" fill="#323657"/>
<path d="M249.635 66.5915C249.635 66.5915 249.669 64.9506 250.299 61.6329C250.468 60.7445 245.154 63.9708 245.154 63.9708C245.154 63.9708 245.17 64.2813 245.181 64.7026C245.187 64.9243 245.191 65.1765 245.19 65.4288C245.188 65.5174 245.188 65.6061 245.185 65.6948C245.18 65.9291 245.17 66.1549 245.149 66.3462C245.13 66.543 245.014 66.8908 244.973 66.9865C244.753 67.4909 247.845 67.8748 249.635 66.5915Z" fill="#EEA987"/>
<path d="M246.319 68.31L245.438 69.4963C245.438 69.4963 245.954 70.1892 246.871 69.6778L246.319 68.31Z" fill="#E64646"/>
<path d="M245.673 69.5447C245.673 69.5447 242.334 82.4388 243.022 92.4739L244.146 94.4598L245.198 92.3796C245.198 92.3796 245.485 74.4271 246.402 69.5128L245.673 69.5447Z" fill="#E64646"/>
<path d="M245.376 67.204L246.319 68.3099C246.319 68.3099 247.833 68.0161 248.277 67.2234C248.722 66.4307 245.376 67.204 245.376 67.204Z" fill="#EEA987"/>
<path d="M245.159 66.2367C245.159 66.2367 245.268 67.0793 246.319 68.31L245.173 69.8538L244.552 66.6525L245.159 66.2367Z" fill="#C4C1CC"/>
<path d="M249.736 65.2985C249.736 65.2985 247.849 67.7043 246.319 68.3099L247.031 70.0742L250.284 66.1341L249.736 65.2985Z" fill="#C4C1CC"/>
<path d="M218.208 83.1332C218.208 83.1332 214.709 83.542 214.512 83.7679C214.315 83.9924 214.362 84.1823 214.691 84.1588C215.02 84.1338 218.091 83.8622 218.091 83.8622C218.091 83.8622 214.079 85.0499 213.876 85.1954C213.757 85.2813 213.825 85.6527 214.004 85.6569C214.183 85.6596 218.243 84.7159 218.243 84.7159C218.243 84.7159 214.499 85.8315 214.369 86.0075C214.255 86.1613 214.402 86.4926 214.687 86.4302C214.972 86.3678 218.518 85.5322 218.518 85.5322C218.518 85.5322 215.857 86.5203 215.839 86.7392C215.828 86.8737 215.872 87.1966 216.549 86.9208C217.227 86.6436 218.905 86.1641 218.905 86.1641L218.208 83.1332Z" fill="#EEA886"/>
<path d="M222.347 83.2994C222.347 83.2994 221.182 83.3604 220.826 82.77C220.524 82.2684 219.784 81.8124 219.556 81.6724C219.252 81.484 218.508 80.5735 218.294 80.9393C218.08 81.3052 219.45 82.4956 219.691 82.7991C219.933 83.1026 218.254 82.9918 217.948 83.2121C217.641 83.4325 217.809 86.2195 218.96 86.1626C220.112 86.1058 221.252 85.2798 221.46 85.3103C221.667 85.3408 222.301 85.302 222.301 85.302L222.347 83.2994Z" fill="#EEA886"/>
<path d="M221.86 86.0532C221.86 86.0532 230.445 84.8489 232.35 84.379C233.23 84.1615 234.39 82.9433 235.493 81.5103C235.857 81.0391 236.214 80.543 236.552 80.0538C236.554 80.0524 236.554 80.0524 236.554 80.0524C237.906 78.0941 238.966 76.2177 238.966 76.2177C238.966 76.2177 242.964 71.521 239.755 69.4269C239.755 69.4269 238.38 69.3978 237.626 69.808C236.851 70.2307 235.198 73.6913 234.917 74.3038C234.636 74.9164 231.599 80.6081 231.395 80.7356C231.191 80.8631 228.158 81.5242 226.808 81.8069C224.85 82.2157 221.173 82.9821 221.173 82.9821L221.86 86.0532Z" fill="#323657"/>
<path d="M243.347 97.8542H246.609V95.3735H243.347V97.8542Z" fill="#3A4066"/>
<path d="M248.796 92.5889C248.796 92.5889 249.203 92.5723 249.375 92.4781C249.375 92.4781 249.68 92.2826 249.904 92.1565C249.975 92.1163 250.038 92.0845 250.081 92.0664C250.26 91.9958 250.674 91.8918 251.056 91.5994C251.438 91.3084 252.684 90.1401 252.684 90.1401L251.879 88.8997L251.507 87.6719C251.507 87.6719 248.604 87.9615 248.217 88.1916C248.18 88.2151 248.142 88.2387 248.111 88.2636C247.801 88.4909 247.667 88.7903 247.518 88.9275C247.464 88.9788 246.958 89.5206 246.985 89.741C247.024 90.0473 247.175 90.2427 247.364 90.3355C247.364 90.3355 247.466 90.9301 247.773 91.1961C247.773 91.1961 247.851 91.7477 248.325 91.9694C248.326 91.9708 248.467 92.5224 248.796 92.5889Z" fill="#EFAA88"/>
<path d="M252.787 90.9412C252.787 90.9412 251.173 89.6135 250.299 87.6719L255.253 84.9515L257.092 88.7044L252.787 90.9412Z" fill="#323657"/>
<path d="M242.356 55.8025C242.356 55.8025 241.189 57.9714 241.767 58.3095C242.245 58.5881 241.207 60.7182 241.07 61.0646C240.935 61.4125 241.936 61.6647 242.148 61.8892C242.361 62.1137 242.992 64.8675 243.817 64.9506C244.642 65.0338 248.36 63.738 249.371 62.6819C250.383 61.6259 251.214 56.8613 250.538 54.8504C249.865 52.8423 244.417 52.0136 242.356 55.8025Z" fill="#EEA886"/>
<path d="M242.123 56.2737C242.123 56.2737 240.932 53.9302 243.097 52.1923C245.261 50.4545 249.252 53.5048 249.702 53.6212C250.151 53.7376 252.704 53.9136 251.415 58.4052C250.309 62.2634 250.154 62.4256 250.154 62.4256C250.154 62.4256 249.328 60.1916 248.86 59.8506C248.129 59.3185 246.526 59.446 246.526 59.446C246.526 59.446 247.289 57.4143 246.096 57.126C244.903 56.8378 243.33 55.8233 242.123 56.2737Z" fill="#16202E"/>
<path d="M247.797 58.2819C247.902 58.0033 248.242 56.8045 249.268 57.5086C250.293 58.2126 248.629 60.4702 248.451 60.4993C248.272 60.5284 246.912 60.6282 247.797 58.2819Z" fill="#EEA886"/>
<path d="M245.188 65.4274C245.187 65.516 245.187 65.6048 245.184 65.6934C248.224 64.6707 248.812 63.131 248.812 63.131C247.863 63.8031 245.18 64.7012 245.18 64.7012C245.187 64.9229 245.19 65.1751 245.188 65.4274Z" fill="#A77860"/>
<path d="M281.338 75.5275L272.562 80.3628L263.75 66.4598L274.408 62.7484L281.338 75.5275Z" fill="#292C47"/>
<path d="M280.781 75.1103L272.575 79.6324L264.333 66.6302L274.302 63.1586L280.781 75.1103Z" fill="#E2D2CA"/>
<path d="M283.786 72.6781C283.786 72.6781 282.258 71.945 281.588 71.5625C280.917 71.18 279.192 70.6548 279.054 70.53C278.916 70.4053 273.942 70.0976 273.641 69.8371C273.339 69.5766 273.046 70.4483 274.335 70.731C275.623 71.0137 277.417 71.7066 277.515 72.2111C277.614 72.7155 276.191 72.8361 276.047 73.2519C275.904 73.6676 276.087 73.5748 276.292 73.6635C276.495 73.7522 277.983 72.9262 278.638 73.1618C279.292 73.396 280.291 73.0717 280.793 73.2436C281.295 73.4154 283.732 74.2386 283.732 74.2386L283.786 72.6781Z" fill="#EEA886"/>
<path d="M272.134 78.6194C272.134 78.6194 270.851 77.4621 270.23 76.9771C269.61 76.4934 268.444 75.0688 268.273 74.9856C268.101 74.9025 265.876 70.3249 265.514 70.1406C265.151 69.9577 265.856 69.341 266.625 70.4483C267.392 71.5556 268.741 72.9803 269.254 72.8763C269.767 72.7724 269.326 71.3824 269.661 71.0844C269.995 70.7864 269.98 70.9971 270.143 71.1551C270.306 71.3131 270.109 73.0399 270.584 73.5665C271.06 74.0931 271.144 75.1644 271.501 75.5705C271.857 75.9765 273.58 77.9597 273.58 77.9597L272.134 78.6194Z" fill="#EEA886"/>
<path d="M299.769 140.502C299.769 140.502 300.047 142.434 300.082 142.724C300.116 143.014 303.17 142.554 303.17 142.554L303.417 140.254C303.416 140.253 300.151 140.229 299.769 140.502Z" fill="#424773"/>
<path d="M300.048 142.477C300.048 142.477 299.081 143.641 298.146 144.149C297.21 144.656 295.741 144.857 295.187 145.382C294.787 145.762 293.732 147.393 297.618 147.36C301.504 147.326 303.377 147.59 303.793 146.965C304.209 146.34 303.191 142.347 303.191 142.347C303.191 142.347 302.271 142.68 300.048 142.477Z" fill="#292C47"/>
<path d="M277.893 140.502C277.893 140.502 278.171 142.434 278.205 142.724C278.24 143.014 281.293 142.554 281.293 142.554L281.541 140.254C281.541 140.253 278.274 140.229 277.893 140.502Z" fill="#424773"/>
<path d="M278.173 142.477C278.173 142.477 277.206 143.641 276.27 144.149C275.334 144.656 271.892 145.073 271.338 145.598C270.938 145.977 270.274 147.504 275.742 147.361C279.626 147.26 281.501 147.591 281.917 146.966C282.333 146.341 281.314 142.348 281.314 142.348C281.314 142.348 280.449 142.702 278.173 142.477Z" fill="#292C47"/>
<path d="M297.241 90.8718C297.241 90.8718 300.109 95.441 299.895 99.5709C299.681 103.701 300.936 108.21 301.366 112.525C301.847 117.335 303.813 128.723 303.883 131.295C303.954 133.867 303.578 142.084 303.578 142.084L299.642 142.174C299.642 142.174 296.337 122.266 295.481 120.234C294.625 118.202 290.38 103.722 290.238 102.096C290.095 100.473 297.241 90.8718 297.241 90.8718Z" fill="#292C47"/>
<path d="M282.14 91.4913C282.14 91.4913 279.978 102.812 279.693 105.34C279.408 107.868 279.217 117.573 279.075 119.153C278.932 120.733 278.124 139.829 277.362 142.175H282.394C282.394 142.175 286.256 128.293 286.256 121.725C286.256 115.158 289.24 107.447 291.167 103.113C293.092 98.7795 297.502 98.677 298.685 90.6376C298.684 90.6376 283.742 88.9413 282.14 91.4913Z" fill="#292C47"/>
<path d="M292.453 52.4556C292.453 52.4556 288.604 51.0143 286.827 53.9523C285.052 56.8904 285.222 62.7734 287.163 63.4968C289.104 64.2202 292.019 63.8419 293.013 62.0028C294.007 60.1638 294.904 57.5057 294.862 55.729C294.819 53.9537 293.464 52.9684 292.453 52.4556Z" fill="#EEA886"/>
<path d="M287.582 63.6312C287.582 63.6312 287.742 64.6734 287.477 65.1875C287.212 65.7003 292.466 65.7142 292.466 65.7142C292.466 65.7142 292.892 62.9216 293.701 60.5615C294.509 58.2028 287.582 63.6312 287.582 63.6312Z" fill="#EEA886"/>
<path d="M293.7 60.5615C293.7 60.5615 293.338 61.1616 291.858 60.9288C290.377 60.696 288.572 58.7225 287.954 58.5049C287.336 58.2873 287.33 57.9242 287.33 57.9242L286.943 58.491L286.287 58.5326C286.287 58.5326 286.885 56.767 285.983 56.0464C285.08 55.3257 286.92 50.3311 291.667 51.9941C291.667 51.9941 295.312 53.0016 295.18 55.0804C295.047 57.1592 294.517 59.5277 293.7 60.5615Z" fill="#3A3F47"/>
<path d="M287.166 65.1252C287.166 65.1252 287.182 64.144 287.626 64.0498C288.07 63.9555 292.521 63.5259 293.066 63.7407V64.8841C293.066 64.8854 292.017 65.5313 287.166 65.1252Z" fill="#E2D2CA"/>
<path d="M287.429 57.1689C287.511 56.8197 288.396 55.8246 288.735 56.8903C289.074 57.9575 288.223 59.3918 287.749 59.2685C287.275 59.1465 287.218 58.0531 287.429 57.1689Z" fill="#EEA886"/>
<path d="M269.496 76.7152C269.499 76.7138 269.5 76.7138 269.503 76.7152C269.474 76.7291 269.469 76.7305 269.496 76.7152Z" fill="#323657"/>
<path d="M300.477 101.758C300.477 101.758 298.116 102.455 294.089 102.9C290.062 103.345 280.001 102.739 279.937 102.262C279.874 101.785 282.102 84.5037 281.975 83.6126C281.848 82.7229 281.78 79.552 281.78 79.552C281.73 80.421 280.847 83.9702 279.781 85.9048C279.395 86.6033 278.104 88.7944 277.481 88.2968C274.467 85.884 269.799 76.7928 269.503 76.7165C269.752 76.6084 271.715 75.7021 271.991 75.6092C272.233 75.5288 274.406 77.8363 275.724 79.2679C276.311 79.9054 276.729 80.3697 276.729 80.3697C277.109 79.5118 278.495 74.1056 278.925 72.2346C279.897 68.0147 279.748 67.8401 279.748 67.8401C282.694 66.9462 287.166 65.1279 287.166 65.1279L293.066 64.8868C293.066 64.8868 298.481 66.0814 300.614 67.0474C300.816 67.1388 300.817 71.8909 301.373 73.1368L299.605 76.8759C299.605 76.8759 298.583 84.2834 298.371 87.5776C298.273 89.0882 300.477 101.758 300.477 101.758Z" fill="#01888A"/>
<path d="M301.617 79.3025C301.463 79.8014 300.765 80.2227 300.31 80.4071C300.019 80.5249 299.693 80.5637 299.366 80.5027L299.135 80.4597L295.091 79.7086C295.091 79.7086 294.206 69.4934 300.615 67.0473C300.783 67.1014 303.032 74.7292 301.617 79.3025Z" fill="#01888A"/>
<path d="M300.308 80.4071C300.018 80.5249 299.692 80.5637 299.364 80.5027L299.133 80.4598L299.531 75.2406L300.308 80.4071Z" fill="#3D6396"/>
<path d="M276.729 80.3683L276.236 82.4665C276.236 82.4665 275.699 80.3614 275.725 79.2679C276.313 79.9041 276.729 80.3683 276.729 80.3683Z" fill="#3D6396"/>
<path d="M293.55 52.8035C293.55 52.8035 298.597 52.22 293.636 60.6696L293.55 52.8035Z" fill="#3A3F47"/>
<path d="M267.806 65.7142L267.293 64.8314L271.333 63.433L271.846 64.3117L267.806 65.7142Z" fill="#292C47"/>
<path d="M134.224 147.866H172.632C175.38 147.866 177.607 145.633 177.607 142.878V40.3224C177.607 37.5673 175.38 35.3346 172.632 35.3346H134.224C131.477 35.3346 129.249 37.5673 129.249 40.3224V142.878C129.249 145.633 131.476 147.866 134.224 147.866Z" fill="#587AA3"/>
<path d="M132.761 148.73H178.994C182.005 148.73 184.446 146.283 184.446 143.264V39.7943C184.446 36.7759 182.005 34.3285 178.994 34.3285H132.761C129.751 34.3285 127.309 36.7759 127.309 39.7943V143.264C127.309 146.283 129.751 148.73 132.761 148.73Z" fill="url(#paint2_linear_234_2769)"/>
<path opacity="0.98" d="M136.299 147.866H178.632C181.38 147.866 183.607 145.633 183.607 142.878V40.3237C183.607 37.5686 181.38 35.336 178.632 35.336H136.299C133.551 35.336 131.324 37.5686 131.324 40.3237V142.878C131.324 145.633 133.551 147.866 136.299 147.866Z" fill="#A3CDFF"/>
<path d="M159.443 73.687L161.534 76.9923L163.464 80.0426C163.46 80.026 163.332 79.5645 163.113 78.2271C163.072 77.9735 163.027 77.688 162.979 77.3679C162.965 77.2737 162.944 77.1794 162.918 77.0866C162.092 75.1769 159.537 73.7369 159.444 73.6898C159.443 73.687 159.443 73.687 159.443 73.687Z" fill="#EDDAD3"/>
<path d="M162.91 77.063C162.91 77.063 163.022 77.2945 163.113 78.2258L162.357 77.081C162.357 77.081 161.006 75.1395 160.543 74.635C160.08 74.1305 159.444 73.6884 159.444 73.6884C159.444 73.6884 162.103 74.969 162.91 77.063Z" fill="#FFCA55"/>
<path d="M168.585 98.6077C168.585 98.6077 169.006 99.011 169.151 99.388C169.266 99.6859 169.652 100.081 169.833 100.305C170.015 100.531 170.694 101.585 170.791 101.878C170.831 101.998 170.778 102.826 170.885 103.062C170.993 103.297 171.269 103.748 171.059 103.832C170.849 103.917 170.49 103.579 170.49 103.579C170.49 103.579 170.574 103.799 170.414 103.929C170.101 104.183 169.869 104.081 169.869 104.081C169.869 104.081 169.807 104.359 169.649 104.433C169.302 104.593 169.081 104.489 169.081 104.489C169.081 104.489 168.958 104.667 168.704 104.722C168.377 104.794 168.16 104.545 168.16 104.545C168.16 104.545 167.773 104.726 167.599 104.563C167.425 104.399 167.387 104.189 167.288 104.026C167.188 103.864 166.779 102.279 166.991 101.018C167.202 99.7566 166.219 98.8101 166.219 98.8101L168.585 98.6077Z" fill="#EEA886"/>
<path d="M172.059 108.309H166.624C166.073 108.309 165.624 107.858 165.624 107.305V103.87C165.624 103.317 166.073 102.866 166.624 102.866H172.059C172.61 102.866 173.059 103.317 173.059 103.87V107.305C173.059 107.86 172.611 108.309 172.059 108.309ZM166.624 103.54C166.443 103.54 166.295 103.688 166.295 103.87V107.305C166.295 107.487 166.443 107.635 166.624 107.635H172.059C172.24 107.635 172.388 107.487 172.388 107.305V103.87C172.388 103.688 172.24 103.54 172.059 103.54H166.624Z" fill="#0E1E2B"/>
<path d="M179.536 106.834H159.146V121.48H179.536V106.834Z" fill="#54281A"/>
<path d="M160.65 67.6669C160.65 67.6669 159.636 67.66 159.191 70.7906C158.746 73.9213 159.589 75.2296 159.69 76.5337C159.791 77.8364 161.316 86.2514 161.358 86.6228C161.399 86.9942 161.604 91.4733 162.198 92.661C162.792 93.8501 167.162 100.585 167.22 100.921C167.278 101.258 169.342 99.7469 169.342 99.7469C169.342 99.7469 165.91 92.5432 165.711 91.72C165.512 90.8968 164.129 86.7004 164.348 85.4198C164.566 84.1379 163.735 77.07 163.815 76.2842C163.896 75.4984 162.651 68.1436 160.65 67.6669Z" fill="#EEA886"/>
<path d="M160.68 67.6447C160.68 67.6447 159.635 67.6599 159.19 70.7906C158.745 73.9213 159.147 75.0494 159.417 76.4061C159.671 77.688 160.538 85.5279 160.579 85.8993C160.621 86.2707 161.658 90.9979 162.197 92.6609C162.607 93.9249 166.503 100.545 166.562 100.881C166.62 101.217 169.591 99.3339 169.591 99.3339C169.591 99.3339 165.781 91.8821 165.582 91.0603C165.383 90.2384 164.737 87.3933 164.717 86.0933C164.692 84.5661 163.734 77.0713 163.814 76.2842C163.894 75.497 163.596 68.7146 160.68 67.6447Z" fill="#E64646"/>
<path d="M151.944 140.662C151.944 140.662 153.763 143.37 154.495 144.023C154.495 144.023 156.182 144.614 156.287 145.765C156.356 146.517 156.29 147.724 154.363 147.778C152.436 147.832 151.198 147.157 150.846 145.988C150.493 144.818 149.827 144.294 149.827 144.294V146.743H149.393C149.393 146.743 149.284 144.376 149.258 143.939C149.23 143.504 148.945 141.83 149.862 141.089C150.775 140.35 151.944 140.662 151.944 140.662Z" fill="#EDDAD3"/>
<path d="M164.281 138.498C164.281 138.498 164.597 139.244 165.191 140.023C165.626 140.594 166.983 142.935 167.58 143.098C168.177 143.262 170.022 143.587 170.186 144.623C170.349 145.656 170.43 146.391 168.611 146.473C166.792 146.554 165.597 146.664 164.729 145.385C163.861 144.106 162.476 143.18 162.476 143.18V146.517H161.77C161.77 146.517 161.443 143.044 161.254 142.799C161.063 142.553 160.575 139.887 162.259 138.498C163.941 137.111 164.281 138.498 164.281 138.498Z" fill="#EDDAD3"/>
<path d="M150.721 88.3966C150.721 88.3966 148.425 91.3901 147.802 94.942C147.178 98.494 148.169 110.414 148.142 112.168C148.114 113.924 146.486 118.291 146.812 121.598C147.138 124.904 149.859 141.09 149.859 141.09L151.942 140.662C151.942 140.662 151.739 123.884 151.942 122.496C152.145 121.109 152.554 116.049 152.636 115.478C152.718 114.907 157.806 99.8993 157.806 97.3396C157.806 94.7785 156.259 84.2196 150.721 88.3966Z" fill="#EEA886"/>
<path d="M162.259 89.5663C162.259 89.5663 166.033 104.004 166.481 106.004C166.929 108.004 167.577 109.654 167.577 110.503C167.577 112.473 166.847 115.637 166.847 115.637L164.281 138.497H162.259C162.259 138.497 160.983 125.148 160.78 122.454C160.576 119.76 162.245 115.596 161.839 114.454C161.431 113.31 155.283 100.125 155.283 100.125C155.283 100.125 150.626 85.3755 162.259 89.5663Z" fill="#EEA886"/>
<path d="M154.808 144.162C154.808 144.162 153.224 144.979 151.785 143.901C150.345 142.822 149.86 141.091 149.86 141.091L151.943 140.663L154.808 144.162Z" fill="#EEA886"/>
<path d="M167.58 143.098C167.58 143.098 165.951 143.507 165.326 143.098C164.701 142.689 162.579 139.093 161.876 138.878C161.876 138.878 162.557 137.492 164.281 138.5C164.281 138.498 167.118 142.499 167.58 143.098Z" fill="#EEA886"/>
<path d="M167.087 108.307C167.087 108.307 160.155 112.398 147.16 112.398C147.16 112.398 146.425 97.2884 148.313 93.0379C150.203 88.7875 162.744 91.4303 162.744 91.4303C162.744 91.4303 166.642 105.181 167.087 108.307Z" fill="#1D3B54"/>
<path d="M157.617 66.5152C157.617 66.5152 159.632 67.4687 160.332 67.61C161.031 67.7514 163.746 71.2853 164.222 72.5756C164.697 73.8658 164.222 75.8019 163.242 78.0747C162.262 80.3475 163.185 81.1056 162.739 83.3784C162.291 85.6512 161.899 90.463 161.982 91.7255C162.067 92.988 150.662 93.2264 148.059 90.9258C148.059 90.9258 150.674 86.9983 151.01 86.437C151.346 85.8757 151.067 82.8172 150.759 82.0314C150.45 81.2456 148.402 74.5643 148.402 74.5643C148.402 74.5643 146.725 69.4325 148.24 68.2545C149.556 67.2303 153.141 66.8644 153.785 66.6413C154.428 66.4168 156.301 66.3198 157.617 66.5152Z" fill="#EDDAD3"/>
<path d="M158.26 71.0192L159.484 69.5821L158.421 65.7973C158.421 65.7973 158.063 67.9052 158.26 71.0192Z" fill="#D6C5BE"/>
<path d="M155.073 52.1784C156.27 51.7557 160.671 50.7191 161.706 56.3596C162.741 61.9987 159.635 66.0121 156.78 64.945C153.926 63.8793 152.162 59.9781 151.995 57.004C151.826 54.0299 153.562 52.7106 155.073 52.1784Z" fill="#EEA886"/>
<path d="M161.706 56.3582C161.706 56.3582 161.921 51.5326 157.136 51.3636C152.35 51.1945 151.063 55.1456 151.454 58.024C151.845 60.9025 153.827 62.4214 153.827 62.4214C153.827 62.4214 153.656 60.0917 154.584 59.4875C155.513 58.8833 159.235 57.6762 160.858 54.8698C160.858 54.8712 161.61 55.7568 161.706 56.3582Z" fill="#252E3B"/>
<path d="M155.74 55.8482C155.109 57.7704 153.24 58.8805 151.563 58.3275C149.888 57.7746 149.04 55.7692 149.671 53.847C150.301 51.9248 152.17 50.8147 153.847 51.3677C155.523 51.9193 156.37 53.926 155.74 55.8482Z" fill="#252E3B"/>
<path d="M158.578 64.1842C158.578 64.1842 158.175 67.89 158.26 69.0971C158.26 69.0971 156.165 71.2008 153.785 66.6413C153.785 66.6413 154.787 64.7621 154.032 62.201C153.277 59.6413 158.578 64.1842 158.578 64.1842Z" fill="#EEA886"/>
<path d="M158.26 69.097V71.0192L155.85 69.2135L158.26 69.097Z" fill="#EEA886"/>
<path d="M158.26 71.0193L157.259 69.7775L153.888 66.4099L152.799 67.4632L158.26 71.0193Z" fill="#D6C5BE"/>
<path d="M153.421 66.7328C153.421 66.7328 156.25 71.0359 156.385 72.9304C156.521 74.8249 155.335 88.9912 154.383 93.5452C153.434 98.0991 146.57 93.031 146.57 93.031C146.57 93.031 151.183 85.5473 149.412 79.5535C147.642 73.5596 146.999 71.1648 146.999 71.1648C146.999 71.1648 147.608 67.8277 149.766 67.3578C151.659 66.9462 153.421 66.7328 153.421 66.7328Z" fill="#E64646"/>
<path d="M164.407 73.1507C164.407 73.1507 164.917 74.9607 162.929 78.9603C162.929 78.9603 162.961 84.0797 163.016 85.679C163.072 87.2782 163.451 93.3248 163.451 93.3248L161.485 94.4792C161.089 94.712 160.599 94.3891 160.654 93.9332C161.211 89.3307 163.021 71.873 159.11 67.1804L160.679 67.6447C160.68 67.6447 163.47 69.9314 164.407 73.1507Z" fill="#E64646"/>
<path d="M155.065 58.4689C154.891 58.0268 154.309 57.902 153.973 58.1543C153.637 58.4065 153.441 59.1646 153.973 60.1471C154.505 61.1297 156.38 61.813 155.065 58.4689Z" fill="#EEA886"/>
<path d="M159.484 69.5821L161.027 70.009L158.421 65.7973L159.484 69.5821Z" fill="#FAE6DE"/>
<path d="M157.259 69.7775L155.85 71.6291L152.957 66.7938L153.889 66.4099L157.259 69.7775Z" fill="#FAE6DE"/>
<path d="M158.495 65.0005L158.42 65.7308C158.42 65.7308 156.761 66.0565 154.582 63.3929C154.584 63.3929 156.128 65.2804 158.495 65.0005Z" fill="#A77860"/>
<path d="M167.059 87.6885C167.059 87.6885 168.037 88.3204 168.6 87.967C169.078 87.6663 169.915 87.6247 170.172 87.6122C170.516 87.5942 171.551 87.1452 171.578 87.5804C171.604 88.0155 169.906 88.4022 169.566 88.556C169.226 88.7085 170.723 89.4416 170.892 89.7908C171.061 90.1401 169.71 92.557 168.741 91.9348C167.772 91.3125 167.146 90.007 166.953 89.9308C166.761 89.8546 166.23 89.5067 166.23 89.5067L167.059 87.6885Z" fill="#EEA886"/>
<path d="M148.446 67.9551C148.446 67.9551 149.828 67.6946 151.003 68.9571C152.178 70.2196 152.767 72.2956 153.074 72.9692C153.382 73.6427 157.273 79.8722 157.496 80.0121C157.72 80.1521 161.674 83.3507 163.464 85.0622C165.256 86.7738 168.746 88.6821 168.746 88.6821L167.43 90.5336C167.43 90.5336 156.823 84.8654 155.48 82.7894C154.136 80.7134 148.772 74.9607 148.772 74.9607C148.772 74.9607 145.55 70.0464 148.446 67.9551Z" fill="#EEA886"/>
<path d="M170.7 89.5912C170.7 89.5912 173.541 91.6922 173.612 91.9915C173.684 92.2909 173.563 92.4378 173.289 92.2521C173.015 92.0664 170.485 90.3008 170.485 90.3008C170.485 90.3008 173.431 93.3552 173.543 93.5867C173.61 93.7225 173.388 94.0218 173.232 93.9373C173.076 93.8514 169.985 90.9923 169.985 90.9923C169.985 90.9923 172.73 93.8486 172.766 94.0703C172.798 94.2644 172.527 94.4889 172.309 94.2907C172.09 94.0925 169.393 91.5869 169.393 91.5869C169.393 91.5869 171.261 93.7918 171.181 93.9983C171.132 94.1244 170.954 94.3919 170.49 93.8084C170.025 93.225 168.786 91.961 168.786 91.961L170.7 89.5912Z" fill="#EEA886"/>
<path d="M163.398 77.9569C163.398 77.9569 163.492 84.3472 163.102 87.4293L162.929 78.9603L163.398 77.9569Z" fill="#E64646"/>
<path d="M149.239 67.5394C149.239 67.5394 149.944 67.6932 151.119 68.9557C152.294 70.2182 152.882 72.2943 153.19 72.9678C153.499 73.6413 157.389 79.8708 157.613 80.0108C157.836 80.1507 161.075 82.382 162.867 84.0935C164.659 85.8051 167.991 87.8506 167.991 87.8506L166.28 90.3965C166.28 90.3965 156.925 85.2022 155.442 83.2246C153.858 81.1112 148.207 74.908 148.207 74.908C148.207 74.908 144.614 69.2343 149.239 67.5394Z" fill="#E64646"/>
<path d="M170.506 103.418C170.506 103.418 170.141 101.996 169.685 101.784C169.229 101.572 169.331 102.092 169.331 102.092C169.331 102.092 169.239 101.576 168.814 101.604C168.39 101.633 168.543 102.236 168.543 102.236C168.543 102.236 168.366 101.863 167.964 102.045C167.562 102.226 167.804 102.699 167.804 102.699C167.804 102.699 167.259 102.309 167.128 102.84C166.906 103.735 167.6 104.566 167.6 104.566C167.6 104.566 167.787 104.75 168.162 104.548C168.162 104.548 168.587 105.03 169.082 104.492C169.082 104.492 169.8 104.686 169.87 104.083C169.87 104.08 170.647 104.243 170.506 103.418Z" fill="#DB9C7C"/>
<path d="M155.551 84.7199L152.348 79.5396C152.348 79.5396 155.079 82.7714 155.363 83.1193C155.648 83.4658 155.672 83.4921 155.672 83.4921C155.672 83.4921 155.59 84.5439 155.551 84.7199Z" fill="#9C2F2F"/>
<path opacity="0.73" d="M179.681 40.3237V142.879C179.681 145.633 177.455 147.864 174.706 147.864H136.297C133.551 147.864 131.322 145.633 131.322 142.879V40.3237C131.322 37.5686 133.551 35.336 136.297 35.336H174.706C177.455 35.336 179.681 37.5686 179.681 40.3237Z" fill="#01888A"/>
<path d="M168.584 98.6077C168.584 98.6077 169.006 99.011 169.151 99.3879C169.266 99.6859 169.652 100.081 169.833 100.305C170.015 100.531 170.694 101.585 170.791 101.878C170.831 101.998 170.778 102.826 170.885 103.062C170.993 103.297 171.269 103.748 171.059 103.832C170.849 103.917 170.489 103.579 170.489 103.579C170.489 103.579 170.574 103.799 170.413 103.929C170.101 104.183 169.869 104.08 169.869 104.08C169.869 104.08 169.806 104.359 169.649 104.432C169.302 104.593 169.081 104.489 169.081 104.489C169.081 104.489 168.958 104.667 168.703 104.722C168.377 104.794 168.16 104.545 168.16 104.545C168.16 104.545 167.773 104.726 167.599 104.563C167.425 104.399 167.387 104.189 167.288 104.026C167.188 103.864 166.779 102.279 166.99 101.018C167.202 99.7566 166.219 98.81 166.219 98.81L168.584 98.6077Z" fill="#EEA886"/>
<path d="M167.09 103.303V103.297C167.086 103.292 167.086 103.292 167.086 103.292C167.086 103.292 167.086 103.292 167.09 103.288C167.086 103.282 167.086 103.278 167.086 103.274C167.086 103.27 167.08 103.264 167.08 103.26C167.057 103.139 167.032 103.011 167.013 102.866H166.624C166.346 102.866 166.102 102.977 165.919 103.155C165.881 103.198 165.843 103.241 165.804 103.289C166.001 104.058 166.169 104.717 166.294 105.217V103.871C166.294 103.688 166.443 103.54 166.624 103.54H167.143C167.125 103.466 167.105 103.389 167.09 103.303ZM167.09 103.303V103.297C167.086 103.292 167.086 103.292 167.086 103.292C167.086 103.292 167.086 103.292 167.09 103.288C167.086 103.282 167.086 103.278 167.086 103.274C167.086 103.27 167.08 103.264 167.08 103.26C167.057 103.139 167.032 103.011 167.013 102.866H166.624C166.346 102.866 166.102 102.977 165.919 103.155C165.881 103.198 165.843 103.241 165.804 103.289C166.001 104.058 166.169 104.717 166.294 105.217V103.871C166.294 103.688 166.443 103.54 166.624 103.54H167.143C167.125 103.466 167.105 103.389 167.09 103.303ZM167.09 103.303V103.297C167.086 103.292 167.086 103.292 167.086 103.292C167.086 103.292 167.086 103.292 167.09 103.288C167.086 103.282 167.086 103.278 167.086 103.274C167.086 103.27 167.08 103.264 167.08 103.26C167.057 103.139 167.032 103.011 167.013 102.866H166.624C166.346 102.866 166.102 102.977 165.919 103.155C165.881 103.198 165.843 103.241 165.804 103.289C166.001 104.058 166.169 104.717 166.294 105.217V103.871C166.294 103.688 166.443 103.54 166.624 103.54H167.143C167.125 103.466 167.105 103.389 167.09 103.303ZM167.09 103.303V103.297C167.086 103.292 167.086 103.292 167.086 103.292C167.086 103.292 167.086 103.292 167.09 103.288C167.086 103.282 167.086 103.278 167.086 103.274C167.086 103.27 167.08 103.264 167.08 103.26C167.057 103.139 167.032 103.011 167.013 102.866H166.624C166.346 102.866 166.102 102.977 165.919 103.155C165.881 103.198 165.843 103.241 165.804 103.289C166.001 104.058 166.169 104.717 166.294 105.217V103.871C166.294 103.688 166.443 103.54 166.624 103.54H167.143C167.125 103.466 167.105 103.389 167.09 103.303ZM167.09 103.303V103.297C167.086 103.292 167.086 103.292 167.086 103.292C167.086 103.292 167.086 103.292 167.09 103.288C167.086 103.282 167.086 103.278 167.086 103.274C167.086 103.27 167.08 103.264 167.08 103.26C167.057 103.139 167.032 103.011 167.013 102.866H166.624C166.346 102.866 166.102 102.977 165.919 103.155C165.881 103.198 165.843 103.241 165.804 103.289C166.001 104.058 166.169 104.717 166.294 105.217V103.871C166.294 103.688 166.443 103.54 166.624 103.54H167.143C167.125 103.466 167.105 103.389 167.09 103.303ZM167.09 103.303V103.297C167.086 103.292 167.086 103.292 167.086 103.292C167.086 103.292 167.086 103.292 167.09 103.288C167.086 103.282 167.086 103.278 167.086 103.274C167.086 103.27 167.08 103.264 167.08 103.26C167.057 103.139 167.032 103.011 167.013 102.866H166.624C166.346 102.866 166.102 102.977 165.919 103.155C165.881 103.198 165.843 103.241 165.804 103.289C166.001 104.058 166.169 104.717 166.294 105.217V103.871C166.294 103.688 166.443 103.54 166.624 103.54H167.143C167.125 103.466 167.105 103.389 167.09 103.303ZM167.09 103.303V103.297C167.086 103.292 167.086 103.292 167.086 103.292C167.086 103.292 167.086 103.292 167.09 103.288C167.086 103.282 167.086 103.278 167.086 103.274C167.086 103.27 167.08 103.264 167.08 103.26C167.057 103.139 167.032 103.011 167.013 102.866H166.624C166.346 102.866 166.102 102.977 165.919 103.155C165.881 103.198 165.843 103.241 165.804 103.289C166.001 104.058 166.169 104.717 166.294 105.217V103.871C166.294 103.688 166.443 103.54 166.624 103.54H167.143C167.125 103.466 167.105 103.389 167.09 103.303ZM172.058 102.865H166.626C166.348 102.865 166.103 102.976 165.921 103.153C165.882 103.196 165.845 103.239 165.806 103.288C165.691 103.451 165.623 103.654 165.623 103.87V107.307C165.623 107.86 166.074 108.311 166.626 108.311H172.058C172.61 108.311 173.061 107.86 173.061 107.307V103.87C173.061 103.317 172.61 102.865 172.058 102.865ZM172.389 107.307C172.389 107.49 172.24 107.634 172.058 107.634H166.626C166.443 107.634 166.295 107.49 166.295 107.307V103.87C166.295 103.687 166.445 103.539 166.626 103.539H172.058C172.241 103.539 172.389 103.688 172.389 103.87V107.307ZM167.09 103.303V103.297C167.086 103.292 167.086 103.292 167.086 103.292C167.086 103.292 167.086 103.292 167.09 103.288C167.086 103.282 167.086 103.278 167.086 103.274C167.086 103.27 167.08 103.264 167.08 103.26C167.057 103.139 167.032 103.011 167.013 102.866H166.624C166.346 102.866 166.102 102.977 165.919 103.155C165.881 103.198 165.843 103.241 165.804 103.289C166.001 104.058 166.169 104.717 166.294 105.217V103.871C166.294 103.688 166.443 103.54 166.624 103.54H167.143C167.125 103.466 167.105 103.389 167.09 103.303ZM167.09 103.303V103.297C167.086 103.292 167.086 103.292 167.086 103.292C167.086 103.292 167.086 103.292 167.09 103.288C167.086 103.282 167.086 103.278 167.086 103.274C167.086 103.27 167.08 103.264 167.08 103.26C167.057 103.139 167.032 103.011 167.013 102.866H166.624C166.346 102.866 166.102 102.977 165.919 103.155C165.881 103.198 165.843 103.241 165.804 103.289C166.001 104.058 166.169 104.717 166.294 105.217V103.871C166.294 103.688 166.443 103.54 166.624 103.54H167.143C167.125 103.466 167.105 103.389 167.09 103.303ZM167.09 103.303V103.297C167.086 103.292 167.086 103.292 167.086 103.292C167.086 103.292 167.086 103.292 167.09 103.288C167.086 103.282 167.086 103.278 167.086 103.274C167.086 103.27 167.08 103.264 167.08 103.26C167.057 103.139 167.032 103.011 167.013 102.866H166.624C166.346 102.866 166.102 102.977 165.919 103.155C165.881 103.198 165.843 103.241 165.804 103.289C166.001 104.058 166.169 104.717 166.294 105.217V103.871C166.294 103.688 166.443 103.54 166.624 103.54H167.143C167.125 103.466 167.105 103.389 167.09 103.303ZM167.09 103.303V103.297C167.086 103.292 167.086 103.292 167.086 103.292C167.086 103.292 167.086 103.292 167.09 103.288C167.086 103.282 167.086 103.278 167.086 103.274C167.086 103.27 167.08 103.264 167.08 103.26C167.057 103.139 167.032 103.011 167.013 102.866H166.624C166.346 102.866 166.102 102.977 165.919 103.155C165.881 103.198 165.843 103.241 165.804 103.289C166.001 104.058 166.169 104.717 166.294 105.217V103.871C166.294 103.688 166.443 103.54 166.624 103.54H167.143C167.125 103.466 167.105 103.389 167.09 103.303ZM167.09 103.303V103.297C167.086 103.292 167.086 103.292 167.086 103.292C167.086 103.292 167.086 103.292 167.09 103.288C167.086 103.282 167.086 103.278 167.086 103.274C167.086 103.27 167.08 103.264 167.08 103.26C167.057 103.139 167.032 103.011 167.013 102.866H166.624C166.346 102.866 166.102 102.977 165.919 103.155C165.881 103.198 165.843 103.241 165.804 103.289C166.001 104.058 166.169 104.717 166.294 105.217V103.871C166.294 103.688 166.443 103.54 166.624 103.54H167.143C167.125 103.466 167.105 103.389 167.09 103.303ZM167.09 103.303V103.297C167.086 103.292 167.086 103.292 167.086 103.292C167.086 103.292 167.086 103.292 167.09 103.288C167.086 103.282 167.086 103.278 167.086 103.274C167.086 103.27 167.08 103.264 167.08 103.26C167.057 103.139 167.032 103.011 167.013 102.866H166.624C166.346 102.866 166.102 102.977 165.919 103.155C165.881 103.198 165.843 103.241 165.804 103.289C166.001 104.058 166.169 104.717 166.294 105.217V103.871C166.294 103.688 166.443 103.54 166.624 103.54H167.143C167.125 103.466 167.105 103.389 167.09 103.303Z" fill="#0E1E2B"/>
<path d="M179.536 106.834H159.146V121.48H179.536V106.834Z" fill="#292C47"/>
<path d="M160.65 67.6669C160.65 67.6669 159.636 67.6599 159.191 70.7906C158.746 73.9213 159.589 75.2295 159.69 76.5336C159.791 77.8364 161.316 86.2513 161.357 86.6227C161.399 86.9942 161.603 91.4733 162.198 92.661C162.792 93.85 167.162 100.585 167.22 100.921C167.278 101.257 169.342 99.7469 169.342 99.7469C169.342 99.7469 165.91 92.5432 165.711 91.7199C165.511 90.8967 164.129 86.7003 164.347 85.4198C164.566 84.1379 163.735 77.07 163.815 76.2842C163.895 75.4984 162.651 68.1436 160.65 67.6669Z" fill="#EEA886"/>
<path d="M160.68 67.6447C160.68 67.6447 159.635 67.6599 159.19 70.7906C158.745 73.9212 159.147 75.0493 159.417 76.4061C159.671 77.688 160.538 85.5279 160.579 85.8993C160.621 86.2707 161.657 90.9979 162.197 92.6609C162.607 93.9248 166.503 100.545 166.562 100.88C166.62 101.217 169.591 99.3339 169.591 99.3339C169.591 99.3339 165.781 91.8821 165.582 91.0602C165.383 90.2384 164.737 87.3932 164.717 86.0933C164.692 84.5661 163.734 77.0713 163.814 76.2841C163.894 75.497 163.596 68.7145 160.68 67.6447Z" fill="#E64646"/>
<path d="M164.281 138.498C164.281 138.498 164.596 139.244 165.191 140.023C165.626 140.594 166.982 142.935 167.58 143.098C168.177 143.262 170.022 143.587 170.185 144.623C170.348 145.656 170.43 146.391 168.611 146.473C166.792 146.554 165.597 146.664 164.729 145.385C163.861 144.106 162.476 143.18 162.476 143.18V146.517H161.769C161.769 146.517 161.443 143.044 161.254 142.799C161.063 142.553 160.575 139.887 162.259 138.498C163.941 137.111 164.281 138.498 164.281 138.498Z" fill="#EDDAD3"/>
<path d="M157.809 97.3383C157.809 97.9633 157.508 99.3187 157.051 101.025C156.797 98.2945 156.404 95.4438 155.977 92.661C155.876 91.9791 155.771 91.3 155.666 90.6279C155.633 90.4353 155.604 90.2482 155.575 90.0555C155.499 89.5843 155.427 89.1131 155.35 88.6516C155.585 88.9454 155.8 89.2808 156.002 89.6425C156.169 89.9599 156.328 90.2967 156.472 90.6473C156.736 91.2917 156.952 91.9791 157.129 92.6665C157.617 94.5541 157.809 96.4388 157.809 97.3383Z" fill="#EEA886"/>
<path d="M167.575 110.504C167.575 112.475 166.847 115.637 166.847 115.637L166.19 121.483L164.282 138.498H162.259C162.259 138.498 162.259 138.479 162.249 138.436C162.158 137.445 160.973 125.044 160.782 122.458C160.759 122.151 160.759 121.824 160.778 121.483C160.932 118.848 162.198 115.47 161.838 114.455C161.714 114.109 161.071 112.677 160.238 110.841C159.898 110.101 159.528 109.293 159.15 108.461C158.526 107.116 157.879 105.712 157.295 104.452C157.246 103.342 157.165 102.193 157.055 101.025C156.801 98.2945 156.408 95.4437 155.981 92.6609C155.88 91.9791 155.775 91.3 155.67 90.6278C155.637 90.4352 155.608 90.2481 155.579 90.0555C155.709 89.9058 155.853 89.7672 156.006 89.6425C157.037 88.8013 158.658 88.513 161.142 89.2101C161.2 89.2198 161.256 89.2392 161.315 89.2586C161.4 89.2822 161.487 89.3071 161.573 89.3348C161.726 89.3833 161.884 89.436 162.047 89.4928C162.119 89.5122 162.191 89.5413 162.263 89.5649C162.263 89.5649 162.449 90.2855 162.752 91.4303C162.752 91.4303 162.762 91.4594 162.776 91.5162C162.79 91.5592 162.805 91.6215 162.824 91.6936C162.954 92.2077 163.107 92.794 163.271 93.4342C163.42 93.9969 163.573 94.5928 163.736 95.2178V95.222C163.812 95.5255 163.894 95.8332 163.976 96.1394V96.145C164.618 98.6201 165.314 101.307 165.811 103.288C166.008 104.057 166.176 104.715 166.301 105.215C166.382 105.562 166.45 105.831 166.487 106.004C166.55 106.288 166.617 106.567 166.684 106.836C166.76 107.114 166.833 107.379 166.905 107.634C166.967 107.86 167.029 108.076 167.087 108.282C167.093 108.292 167.093 108.296 167.093 108.306L167.097 108.312C167.36 109.248 167.575 110.008 167.575 110.504Z" fill="#EEA886"/>
<path d="M167.58 143.098C167.58 143.098 165.951 143.507 165.326 143.098C164.701 142.689 162.579 139.093 161.876 138.878C161.876 138.878 162.557 137.492 164.281 138.5C164.281 138.498 167.118 142.499 167.58 143.098Z" fill="#EEA886"/>
<path d="M167.086 108.306C167.086 108.306 167.086 108.306 167.08 108.311C166.956 108.379 164.625 109.72 160.233 110.839C159.884 110.931 159.519 111.022 159.145 111.104C158.456 111.268 157.722 111.416 156.945 111.556C157.328 109.517 157.405 107.085 157.29 104.452C157.242 103.342 157.16 102.193 157.051 101.025C156.797 98.2945 156.404 95.4437 155.977 92.6609C155.876 91.9791 155.771 91.3 155.666 90.6278C155.934 90.6278 156.202 90.6375 156.472 90.6472C158.174 90.729 159.795 90.9355 160.965 91.1129C161.276 91.1656 161.559 91.2085 161.798 91.2529H161.818C161.87 91.2667 161.923 91.2723 161.971 91.282C162.46 91.3679 162.748 91.4316 162.748 91.4316C162.748 91.4316 162.758 91.4607 162.771 91.5176C162.785 91.5605 162.801 91.6229 162.82 91.695C162.915 92.022 163.084 92.6221 163.304 93.4107C163.467 93.9969 163.659 94.6801 163.865 95.434V95.4382C163.956 95.7653 164.047 96.1062 164.148 96.4568C164.148 96.461 164.148 96.4609 164.148 96.4665C164.714 98.5578 165.37 100.994 165.922 103.153C166.052 103.673 166.18 104.172 166.297 104.653C166.498 105.465 166.671 106.205 166.809 106.836C166.872 107.129 166.924 107.398 166.973 107.634C167.021 107.883 167.058 108.099 167.083 108.282C167.086 108.292 167.086 108.298 167.086 108.306Z" fill="#1D3B54"/>
<path d="M163.817 76.5918V76.6057C163.817 76.6057 163.817 76.6112 163.817 76.6153V76.6292C163.654 77.0949 163.457 77.5716 163.242 78.0761C163.102 78.3976 163.002 78.6914 162.929 78.9602C162.498 80.5942 163.121 81.4257 162.737 83.3784C162.708 83.5364 162.675 83.7054 162.646 83.8884C162.626 84.0034 162.607 84.1281 162.588 84.2542C162.434 85.2257 162.3 86.4217 162.19 87.5803C162.18 87.7203 162.166 87.8589 162.156 87.9988C162.108 88.5185 162.071 89.0272 162.042 89.4942C161.999 90.2052 161.97 90.8302 161.97 91.282C161.97 91.4594 161.97 91.609 161.979 91.7296C161.984 91.7684 161.975 91.8017 161.956 91.8405C161.952 91.8502 161.952 91.8543 161.942 91.864C161.827 92.0567 161.429 92.2147 160.839 92.3449C159.947 92.5376 158.615 92.6526 157.129 92.6665C156.754 92.6762 156.371 92.672 155.979 92.6623C155.878 91.9804 155.773 91.3014 155.667 90.6292C155.634 90.4366 155.605 90.2495 155.576 90.0569C155.5 89.5857 155.428 89.1145 155.351 88.653C155.308 88.3744 155.265 88.1 155.221 87.8256C154.953 86.1293 154.698 84.5037 154.492 83.0097C154.44 82.63 154.392 82.2641 154.343 81.9038C154.343 81.8844 154.339 81.865 154.339 81.8512C154.31 81.6114 154.281 81.38 154.253 81.1541C154.143 80.2075 154.061 79.3316 154.014 78.5389C153.928 77.0921 153.991 75.8573 154.139 74.7805C154.144 74.7278 154.152 74.6751 154.162 74.6266C154.397 72.9969 154.824 71.7232 155.232 70.5882C155.285 70.4344 155.337 70.2847 155.39 70.1406C155.39 70.135 155.39 70.135 155.39 70.135C155.491 69.8606 155.582 69.5973 155.667 69.3326C155.691 69.2647 155.716 69.2024 155.735 69.1358C155.813 68.9099 155.879 68.684 155.941 68.4581C156.114 67.7999 156.229 67.136 156.219 66.4154C156.703 66.4209 157.192 66.4542 157.619 66.5165C157.619 66.5165 157.907 66.651 158.305 66.8284C158.319 66.8381 158.334 66.8422 158.344 66.8478C158.478 66.906 158.627 66.9725 158.775 67.0349C158.89 67.0875 159 67.136 159.115 67.179L159.119 67.1831C159.191 67.2123 159.263 67.2414 159.335 67.2691C159.728 67.4284 160.102 67.5629 160.332 67.61C160.384 67.6197 160.442 67.6488 160.514 67.6959C160.514 67.6959 160.514 67.6959 160.518 67.6959H160.524C160.898 67.9315 161.512 68.5953 162.14 69.3825L162.144 69.3881C162.389 69.6902 162.637 70.0172 162.868 70.3443C162.868 70.3443 162.868 70.3499 162.872 70.3499C163.448 71.1426 163.947 71.9311 164.166 72.4508C164.19 72.509 164.215 72.5659 164.234 72.6241C164.583 73.6205 164.377 74.9814 163.817 76.5918Z" fill="#EDDAD3"/>
<path d="M158.259 71.0192L159.484 69.5821L158.421 65.7973C158.421 65.7973 158.063 67.9052 158.259 71.0192Z" fill="#D6C5BE"/>
<path d="M158.495 64.9976C158.49 65.0018 158.485 65.0018 158.481 65.0018C157.929 65.1653 157.349 65.1556 156.783 64.9436C156.49 64.8327 156.208 64.6941 155.94 64.5306C155.934 64.507 155.926 64.4821 155.921 64.4585C155.891 64.3629 155.862 64.2617 155.829 64.1606C155.594 63.4344 155.445 62.6472 155.363 61.8295C155.334 61.5219 155.311 61.2045 155.297 60.8872C155.274 60.3051 155.278 59.7147 155.307 59.1326C155.303 59.1285 155.303 59.123 155.297 59.1133C155.297 59.1133 155.301 59.1077 155.307 59.1077C155.35 58.1127 155.46 57.1329 155.594 56.2196C155.695 55.5225 155.815 54.8683 155.94 54.2821V54.2766C156.156 53.2095 156.377 52.3544 156.52 51.8541C158.294 51.667 160.889 52.1617 161.685 56.2431C161.695 56.2819 161.704 56.3193 161.709 56.3582C162.535 60.8678 160.715 64.3338 158.495 64.9976Z" fill="#EEA886"/>
<path d="M161.706 56.3595C161.702 56.3207 161.692 56.2819 161.682 56.2445C161.519 55.6527 160.857 54.8697 160.857 54.8697C159.519 57.1814 156.753 58.412 155.305 59.1091C155.348 58.114 155.459 57.1342 155.593 56.221C155.694 55.5239 155.814 54.8697 155.938 54.2835C155.933 54.278 155.938 54.278 155.938 54.278C156.154 53.2108 156.375 52.3558 156.519 51.8555C156.591 51.5714 156.643 51.4037 156.659 51.3649C156.812 51.3607 156.975 51.3607 157.138 51.3649C161.923 51.5339 161.706 56.3595 161.706 56.3595Z" fill="#252E3B"/>
<path d="M155.737 55.8453C155.694 55.9756 155.645 56.1004 155.593 56.2209C155.694 55.5238 155.814 54.8697 155.938 54.2835C155.972 54.7921 155.909 55.3215 155.737 55.8453Z" fill="#252E3B"/>
<path d="M158.576 64.1855C158.576 64.1855 158.543 64.507 158.494 64.9976C158.494 64.9976 158.494 64.9976 158.494 65.0018L158.442 65.545C158.438 65.6268 158.428 65.7086 158.423 65.7945V65.7987C158.423 65.8042 158.423 65.8042 158.417 65.8083C158.417 65.8222 158.417 65.8375 158.413 65.8513C158.389 66.1687 158.36 66.5054 158.341 66.8464C158.269 67.7305 158.226 68.6147 158.259 69.0956C158.259 69.0956 158.24 69.115 158.201 69.1483C158.058 69.2688 157.646 69.5613 157.065 69.5807C156.719 69.5904 156.312 69.5044 155.867 69.2203L155.853 69.2107C155.81 69.1871 155.771 69.1621 155.732 69.1344C155.81 68.9085 155.876 68.6826 155.938 68.4567C156.111 67.7984 156.226 67.1346 156.216 66.414C156.211 65.9137 156.149 65.3857 156.01 64.8091C155.991 64.7177 155.967 64.6262 155.938 64.5306C155.933 64.507 155.925 64.4821 155.919 64.4585C155.89 64.3629 155.861 64.2617 155.828 64.1605C155.593 63.4344 155.443 62.6472 155.362 61.8295C156.719 62.5987 158.576 64.1855 158.576 64.1855Z" fill="#EEA886"/>
<path d="M158.26 69.097V71.0192L155.85 69.2134L158.26 69.097Z" fill="#EEA886"/>
<path d="M158.259 71.0206L156.956 70.1752L155.666 69.334C155.69 69.2661 155.714 69.2037 155.734 69.1372C155.811 68.9113 155.878 68.6854 155.94 68.4595L156.659 69.176L157.066 69.5849L157.259 69.7775L158.259 71.0206Z" fill="#D6C5BE"/>
<path d="M156.154 77.8321C156.154 77.8848 156.15 77.943 156.144 77.9998C156.03 79.5423 155.88 81.2968 155.713 83.0762C155.699 83.2106 155.69 83.3506 155.67 83.4892C155.637 83.898 155.593 84.3069 155.55 84.7143V84.7185C155.445 85.7759 155.334 86.8236 155.22 87.8242C154.951 86.1279 154.697 84.5023 154.491 83.0083C154.439 82.6286 154.39 82.2627 154.342 81.9024C154.342 81.883 154.338 81.8636 154.338 81.8497C154.309 81.61 154.28 81.3785 154.252 81.1526C154.141 80.2061 154.06 79.3302 154.013 78.5375C153.927 77.0907 153.989 75.8559 154.137 74.779C154.143 74.7264 154.151 74.6737 154.161 74.6252C154.396 72.9954 154.823 71.7218 155.231 70.5868C155.283 70.433 155.336 70.2833 155.388 70.1392C155.614 70.5868 155.82 71.033 155.988 71.4516C156.209 72.0087 156.357 72.5228 156.386 72.9275C156.428 73.5387 156.337 75.4138 156.154 77.8321Z" fill="#E64646"/>
<path d="M164.407 73.1507C164.407 73.1507 164.917 74.9606 162.929 78.9602C162.929 78.9602 162.961 84.0796 163.016 85.6789C163.072 87.2782 163.45 93.3248 163.45 93.3248L161.485 94.4792C161.089 94.712 160.599 94.3891 160.654 93.9331C161.211 89.3307 163.021 71.8729 159.11 67.1804L160.679 67.6447C160.68 67.6447 163.47 69.9313 164.407 73.1507Z" fill="#E64646"/>
<path d="M155.296 60.8871C155.272 60.3051 155.276 59.7147 155.305 59.1326C155.641 60.215 155.55 60.7236 155.296 60.8871Z" fill="#EEA886"/>
<path d="M159.484 69.5821L161.027 70.0089L158.421 65.7973L159.484 69.5821Z" fill="#FAE6DE"/>
<path d="M157.257 69.7761L157.018 70.0879L156.956 70.1738L155.987 71.453L155.853 71.6304L155.229 70.5868C155.282 70.433 155.334 70.2833 155.387 70.1392C155.387 70.1337 155.387 70.1337 155.387 70.1337C155.488 69.8592 155.579 69.5959 155.665 69.3312C155.688 69.2633 155.713 69.201 155.733 69.1344C155.81 68.9086 155.876 68.6827 155.939 68.4568L156.657 69.1733L157.065 69.5821L157.257 69.7761Z" fill="#FAE6DE"/>
<path d="M158.495 65.0018L158.442 65.5451L158.423 65.728C158.423 65.728 157.449 65.9206 156.01 64.8106C155.991 64.7191 155.968 64.6276 155.939 64.532C155.933 64.5084 155.925 64.4835 155.919 64.4599C156.576 64.83 157.448 65.1238 158.479 65.0032H158.495V65.0018Z" fill="#A77860"/>
<path d="M167.058 87.6884C167.058 87.6884 168.037 88.3204 168.6 87.967C169.078 87.6663 169.914 87.6247 170.172 87.6122C170.516 87.5942 171.551 87.1452 171.577 87.5803C171.604 88.0155 169.906 88.4022 169.566 88.556C169.226 88.7084 170.723 89.4416 170.892 89.7908C171.06 90.14 169.71 92.557 168.741 91.9347C167.772 91.3125 167.146 90.007 166.953 89.9308C166.761 89.8546 166.23 89.5067 166.23 89.5067L167.058 87.6884Z" fill="#EEA886"/>
<path d="M168.75 88.6807L167.432 90.5363C167.432 90.5363 167.427 90.5322 167.412 90.5266C167.34 90.4878 167.014 90.3146 166.521 90.0416C166.161 89.8448 165.705 89.5953 165.192 89.3015C165.124 89.2683 165.058 89.2295 164.99 89.1907C164.429 88.8788 163.801 88.5171 163.145 88.1374C162.834 87.9545 162.512 87.7674 162.191 87.5803C161.927 87.4223 161.659 87.2629 161.391 87.0994C161.362 87.0855 161.333 87.0661 161.305 87.0467C161.118 86.9317 160.926 86.8167 160.739 86.7003C158.572 85.374 156.52 83.9895 155.715 83.0762C155.619 82.975 155.542 82.8794 155.484 82.788C155.21 82.3694 154.774 81.7971 154.252 81.154C154.141 80.2075 154.06 79.3316 154.013 78.5389C153.927 77.092 153.989 75.8572 154.137 74.7804C154.741 75.7699 155.499 76.9867 156.146 78.0012C156.845 79.1071 157.416 79.9622 157.498 80.0148C157.618 80.0911 158.807 81.039 160.159 82.1685C160.322 82.3085 160.489 82.447 160.662 82.587C160.94 82.8268 161.223 83.0679 161.501 83.3035C161.88 83.6306 162.249 83.9576 162.589 84.2556C162.729 84.3859 162.863 84.505 162.991 84.6215L163.044 84.6741C163.13 84.7517 163.217 84.828 163.298 84.9056C163.356 84.9582 163.413 85.0109 163.466 85.0636C163.72 85.3089 164.012 85.5583 164.324 85.8036C164.454 85.9048 164.583 86.0059 164.717 86.1071C165.498 86.6989 166.362 87.2602 167.085 87.7078C167.128 87.7313 167.17 87.7604 167.209 87.7854C167.421 87.9157 167.621 88.0348 167.799 88.136C168.372 88.4742 168.75 88.6807 168.75 88.6807Z" fill="#EEA886"/>
<path d="M170.7 89.5912C170.7 89.5912 173.54 91.6922 173.612 91.9915C173.684 92.2909 173.563 92.4378 173.289 92.2521C173.015 92.0664 170.485 90.3007 170.485 90.3007C170.485 90.3007 173.431 93.3552 173.543 93.5866C173.61 93.7225 173.388 94.0218 173.232 93.9373C173.076 93.8513 169.985 90.9923 169.985 90.9923C169.985 90.9923 172.73 93.8486 172.766 94.0703C172.798 94.2643 172.527 94.4888 172.309 94.2907C172.09 94.0925 169.393 91.5868 169.393 91.5868C169.393 91.5868 171.261 93.7918 171.181 93.9982C171.132 94.1244 170.954 94.3918 170.489 93.8084C170.025 93.2249 168.786 91.961 168.786 91.961L170.7 89.5912Z" fill="#EEA886"/>
<path d="M163.398 77.9569C163.398 77.9569 163.492 84.3471 163.102 87.4293L162.929 78.9603L163.398 77.9569Z" fill="#E64646"/>
<path d="M167.993 87.8492L167.869 88.0363L167.801 88.1319L166.688 89.7894L166.521 90.0388L166.282 90.395C166.282 90.395 165.912 90.1885 165.308 89.8476C165.256 89.8185 165.203 89.7852 165.145 89.7561C164.613 89.4485 163.931 89.0549 163.17 88.6031C162.844 88.4104 162.503 88.2095 162.158 87.9974C161.913 87.8533 161.669 87.7036 161.424 87.5554C161.371 87.5221 161.323 87.493 161.275 87.4639C161.131 87.3724 160.987 87.2865 160.843 87.1992C158.714 85.8729 156.562 84.4302 155.674 83.4934C155.674 83.4934 155.674 83.4934 155.669 83.4878C155.659 83.474 155.64 83.4546 155.607 83.4158C155.545 83.3479 155.492 83.2855 155.444 83.2231C155.42 83.1899 155.391 83.1566 155.362 83.1178C155.352 83.1081 155.343 83.0943 155.329 83.079C155.074 82.7422 154.729 82.3196 154.336 81.8484C154.307 81.6086 154.278 81.3772 154.251 81.1513C154.14 80.2047 154.058 79.3289 154.011 78.5361C153.926 77.0893 153.988 75.8545 154.136 74.7777C154.141 74.725 154.15 74.6723 154.159 74.6238C154.744 75.5856 155.498 76.801 156.154 77.8293C156.908 79.0115 157.525 79.9594 157.611 80.0121C157.741 80.0939 158.848 80.8533 160.115 81.8054C160.268 81.926 160.426 82.0507 160.589 82.1754C160.896 82.411 161.207 82.6563 161.51 82.9058C161.912 83.237 162.3 83.5696 162.646 83.887C162.723 83.9549 162.795 84.027 162.867 84.0935C162.906 84.1267 162.943 84.1655 162.982 84.1988C163.001 84.2182 163.015 84.2321 163.034 84.2473C163.126 84.3332 163.221 84.4205 163.318 84.4967C163.638 84.785 163.994 85.0691 164.359 85.3477C164.469 85.4336 164.58 85.5209 164.695 85.6027C166.309 86.8153 167.993 87.8492 167.993 87.8492Z" fill="#E64646"/>
<path d="M170.506 103.418C170.506 103.418 170.141 101.996 169.685 101.784C169.229 101.572 169.331 102.092 169.331 102.092C169.331 102.092 169.238 101.576 168.814 101.604C168.39 101.633 168.543 102.236 168.543 102.236C168.543 102.236 168.366 101.863 167.964 102.045C167.561 102.226 167.803 102.699 167.803 102.699C167.803 102.699 167.259 102.309 167.127 102.84C166.906 103.735 167.574 104.592 167.574 104.592C167.574 104.592 167.78 104.783 168.155 104.581C168.155 104.581 168.611 105.063 169.104 104.524C169.104 104.524 169.826 104.737 169.896 104.133C169.898 104.133 170.708 104.234 170.506 103.418Z" fill="#DB9C7C"/>
<path d="M155.674 83.4934C155.674 83.4934 155.589 84.5272 155.55 84.7143L154.49 83.0083C154.437 82.6286 154.389 82.2627 154.34 81.9024C154.739 82.3736 155.088 82.7921 155.265 83.0028C155.289 83.0319 155.308 83.0554 155.327 83.079C155.341 83.0929 155.351 83.1081 155.361 83.1178C155.491 83.2716 155.562 83.3631 155.605 83.4158C155.639 83.4546 155.658 83.474 155.668 83.4878C155.674 83.4934 155.674 83.4934 155.674 83.4934Z" fill="#9C2F2F"/>
<path d="M155.305 59.1327C155.301 59.1285 155.301 59.123 155.296 59.1133C155.296 59.1133 155.3 59.1077 155.305 59.1077V59.1327Z" fill="#01888A"/>
<path d="M120.034 143.91C120.034 143.91 121.875 145.137 122.713 145.601C123.551 146.065 126.888 146.363 127.201 146.695C127.515 147.027 127.341 148.022 126.781 148.094C126.221 148.168 122.139 148.32 120.801 147.931C119.463 147.541 116.899 147.942 116.347 147.72C115.795 147.498 116.318 144.484 116.571 143.815C116.824 143.147 120.034 143.91 120.034 143.91Z" fill="#1D2033"/>
<path d="M116.836 143.008L116.571 143.816L120.034 143.91L119.922 142.802L116.836 143.008Z" fill="#50558A"/>
<path d="M100.108 142.228C100.108 142.228 101.519 143.934 102.188 144.62C102.857 145.306 105.969 146.553 106.174 146.961C106.378 147.369 105.928 148.272 105.371 148.182C104.814 148.09 100.86 147.06 99.689 146.301C98.5182 145.542 95.9483 145.187 95.4838 144.815C95.0193 144.445 96.3837 141.707 96.8178 141.139C97.2533 140.57 100.108 142.228 100.108 142.228Z" fill="#1D2033"/>
<path d="M97.3046 140.442L96.8193 141.139L100.108 142.228L100.32 141.133L97.3046 140.442Z" fill="#50558A"/>
<path d="M126.221 73.18C126.221 73.18 129.328 71.6319 129.61 71.7109C129.892 71.7899 129.955 71.9729 129.67 72.1295C129.386 72.2875 126.707 73.7163 126.707 73.7163C126.707 73.7163 130.653 72.5341 130.899 72.5452C131.043 72.5508 131.187 72.8958 131.04 72.9942C130.894 73.0926 127.04 74.5021 127.04 74.5021C127.04 74.5021 130.727 73.4058 130.928 73.4807C131.105 73.5458 131.161 73.8992 130.892 74.0004C130.624 74.1016 127.25 75.3239 127.25 75.3239C127.25 75.3239 129.974 74.7044 130.107 74.8763C130.189 74.9816 130.326 75.2726 129.618 75.4084C128.91 75.5456 127.269 76.0529 127.269 76.0529L126.221 73.18Z" fill="#EEA886"/>
<path d="M122.895 75.547C122.895 75.547 123.889 74.9691 123.866 74.29C123.846 73.7121 124.213 72.9388 124.325 72.699C124.475 72.3803 124.6 71.2287 124.973 71.4144C125.346 71.6001 124.853 73.3213 124.817 73.7024C124.781 74.0835 126.106 73.0857 126.477 73.1037C126.847 73.1204 128.205 75.5096 127.223 76.0833C126.243 76.6571 124.86 76.5906 124.705 76.7278C124.55 76.865 124.005 77.1754 124.005 77.1754L122.895 75.547Z" fill="#EEA886"/>
<path d="M112.401 83.1055C113.149 84.7214 113.531 84.9224 114.398 85.1358C116.274 85.5987 125.024 77.612 125.024 77.612L123.115 75.1008C123.115 75.1008 120.976 76.7693 119.154 77.9986C118.026 78.7594 115.801 80.6179 115.6 80.4918C115.4 80.3657 112.421 76.1707 112.144 75.5678C111.868 74.9636 110.69 70.3417 109.991 69.8248C109.989 69.8234 107.567 72.6561 112.401 83.1055Z" fill="#D6D6D6"/>
<path d="M110.347 104.38C110.347 104.38 109.688 109.261 109.015 113.948C108.886 114.84 108.758 115.725 108.633 116.567C108.198 119.512 107.811 121.946 107.663 122.377C107.241 123.603 101.333 141.956 101.333 141.956C101.333 141.956 96.7377 141.108 96.5842 140.606C96.5842 140.606 101.587 121.389 101.53 120.694C101.472 119.999 102.152 100.397 102.152 100.397C102.152 100.397 110.116 103.252 110.347 104.38Z" fill="#292C47"/>
<path d="M114.092 98.3015C114.092 98.3015 118.239 118.234 118.586 119.702C118.933 121.17 120.92 143.542 120.92 143.542C120.92 143.542 119.018 143.689 115.737 143.542C115.737 143.542 112.153 120.908 111.782 120.205C110.346 117.476 104.818 103.752 104.124 101.86C103.43 99.9687 102.224 98.2488 102.224 98.2488C102.224 98.2488 107.017 94.5458 114.092 98.3015Z" fill="#292C47"/>
<path d="M104.973 66.4543C104.973 66.4543 109.293 69.6459 110.493 70.9195C111.691 72.1932 114.228 77.3222 114.022 78.9423C113.234 85.1538 113.492 90.6362 113.752 94.8562C113.953 98.0977 114.261 98.2876 114.048 98.3292C113.224 98.49 103.712 100.472 102.133 100.973C102.133 100.973 101.748 91.2543 102.248 89.7479C102.748 88.2415 100.505 72.5549 104.973 66.4543Z" fill="#D6D6D6"/>
<path d="M104.973 66.4543C104.973 66.4543 112.885 74.818 112.392 73.8839C110.628 70.5537 109.428 70.0076 109.441 69.3798C109.45 68.9003 109.613 67.4978 109.637 67.0294C109.681 66.1383 109.735 65.4121 109.735 65.4121C109.735 65.4121 105.784 60.0529 105.987 61.8989C106.188 63.7463 104.973 66.4543 104.973 66.4543Z" fill="#EEA886"/>
<path d="M112.189 56.3153C112.189 56.3153 113.3 58.8085 113.326 59.3961C113.351 59.9837 113.212 60.4369 113.314 61.1132C113.42 61.8117 114.033 63.2751 113.968 63.6826C113.889 64.176 112.851 63.939 112.724 64.7511C112.595 65.5646 111.871 67.1001 111.498 67.1375C110.538 67.2332 106.831 65.7946 106.583 65.0269C106.336 64.2591 104.926 59.9782 104.497 59.1674C104.067 58.3567 110.888 53.7473 111.539 55.032C112.189 56.3153 112.189 56.3153 112.189 56.3153Z" fill="#EEA886"/>
<path d="M102.841 58.3456C102.316 56.2225 104.755 55.9176 104.755 55.9176C104.755 55.9176 106.313 54.0328 110.126 54.1853C113.937 54.3377 113.444 59.331 113.444 59.331C113.444 59.331 110.802 58.9831 109.662 59.2936C109.662 59.2936 109.559 61.4236 109.693 61.9489L108.254 61.8463C108.254 61.8463 108.381 59.9546 107.69 59.8784C106.999 59.8008 106.84 63.8919 105.571 64.8148C105.571 64.8148 105.553 64.5266 105.387 64.2466C105.123 63.8004 104.711 63.0548 104.352 62.1803C103.771 60.9524 103.11 59.4321 102.841 58.3456Z" fill="#16202E"/>
<path d="M108.655 60.3163C108.655 60.3163 108.097 58.8847 106.85 59.8423C105.943 60.538 106.931 62.955 107.824 62.9273C108.717 62.8995 109.057 61.5691 108.655 60.3163Z" fill="#EEA886"/>
<path d="M106.365 64.3575C106.365 64.3575 106.566 65.1197 106.775 65.2943C106.984 65.4689 107.988 66.2464 109.675 66.7453L109.529 68.249C109.529 68.2476 106.243 67.0447 106.365 64.3575Z" fill="#C48A6F"/>
<path d="M114.218 98.9016C114.218 98.9016 114.137 97.5601 113.965 97.1804C113.965 97.1804 106.941 98.9667 102.089 99.6902C102.089 99.6902 102.024 100.481 102.119 101.393C102.118 101.395 112.767 99.4546 114.218 98.9016Z" fill="#3D4169"/>
<path d="M104.973 66.6192L109.959 70.2696C109.959 70.2696 111.697 71.9312 112.966 74.8901L104.125 67.879L104.973 66.6192Z" fill="#D6D6D6"/>
<path d="M105.244 65.7794L109.651 68.6883L109.989 70.4331L104.789 66.7162L105.244 65.7794Z" fill="#E3E3E3"/>
<path d="M109.989 70.4331C109.989 70.4331 113.539 77.0492 113.643 83.3452C113.738 89.206 113.973 93.2555 113.973 93.2555L114.536 94.8382L115.017 92.9451C115.017 92.9451 114.926 86.1197 114.811 83.0237C114.696 79.9276 113.242 74.1153 110.281 70.106L109.989 70.4331Z" fill="#D44040"/>
<path d="M109.989 70.4331C109.989 70.4331 110.168 70.5842 110.408 70.605C110.649 70.6258 110.965 70.2239 109.651 68.687L109.989 70.4331Z" fill="#D44040"/>
<path d="M109.015 113.948C108.886 114.84 108.758 115.725 108.633 116.567C107.936 114.96 105.672 105.854 105.632 105.694L109.015 113.948Z" fill="#1C1D30"/>
<path d="M123.528 89.7909C123.528 89.7909 124.507 90.4229 125.07 90.0695C125.548 89.7688 126.384 89.7272 126.642 89.7133C126.986 89.6953 128.021 89.2463 128.047 89.6814C128.074 90.1166 126.376 90.5033 126.036 90.6571C125.696 90.8095 127.193 91.5427 127.362 91.8919C127.53 92.2411 126.18 94.6581 125.211 94.0358C124.242 93.4136 123.615 92.1081 123.423 92.0319C123.231 91.9556 122.7 91.6078 122.7 91.6078L123.528 89.7909Z" fill="#EEA886"/>
<path d="M127.17 91.6923C127.17 91.6923 130.01 93.7946 130.082 94.0926C130.154 94.392 130.033 94.5389 129.759 94.3531C129.485 94.1674 126.955 92.4019 126.955 92.4019C126.955 92.4019 129.901 95.4563 130.013 95.6877C130.08 95.8236 129.858 96.1229 129.702 96.037C129.546 95.9511 126.455 93.092 126.455 93.092C126.455 93.092 129.2 95.9483 129.236 96.17C129.268 96.364 128.997 96.5886 128.779 96.3904C128.56 96.1922 125.863 93.6852 125.863 93.6852C125.863 93.6852 127.731 95.8901 127.651 96.0966C127.602 96.2227 127.424 96.4902 126.96 95.9067C126.495 95.3233 125.256 94.0607 125.256 94.0607L127.17 91.6923Z" fill="#EEA886"/>
<path d="M105.708 69.6418C105.708 69.6418 106.413 69.7956 107.588 71.0582C108.763 72.3207 109.351 74.3967 109.659 75.0702C109.967 75.7438 113.857 81.9719 114.081 82.1132C114.305 82.2532 117.544 84.483 119.335 86.196C121.127 87.9089 124.46 89.9517 124.46 89.9517L122.749 92.4975C122.749 92.4975 113.394 87.3033 111.911 85.3256C110.326 83.2122 104.675 77.0091 104.675 77.0091C104.675 77.0091 101.084 71.3353 105.708 69.6418Z" fill="#D6D6D6"/>
<path opacity="0.3" d="M159.714 154.541C159.714 154.541 218.703 94.8922 159.388 27.9632H159.389C169.399 29.6733 179.146 33.7991 187.742 40.4568C215.745 62.1442 220.908 102.484 199.274 130.557C189.123 143.73 174.873 151.862 159.714 154.541Z" fill="#869AC2"/>
<path d="M92.9252 151.678L51.426 190H20.3388L78.659 136.145L80.3787 138.019L91.2056 149.81L92.9252 151.678Z" fill="#01888A"/>
<path d="M91.2123 149.809L96.0795 145.314L85.2481 133.526L80.3809 138.02L91.2123 149.809Z" fill="#2D3038"/>
<path opacity="0.1" d="M194.098 136.929C219.242 111.721 219.242 70.8508 194.098 45.6429C168.953 20.435 128.185 20.435 103.041 45.6429C77.8962 70.8508 77.8962 111.721 103.041 136.929C128.185 162.137 168.953 162.137 194.098 136.929Z" fill="#B8B8B8"/>
<path d="M148.572 14.433C106.233 14.433 71.9115 48.8413 71.9115 91.2876C71.9115 133.732 106.233 168.141 148.572 168.141C190.91 168.141 225.232 133.732 225.232 91.2876C225.234 48.8413 190.91 14.433 148.572 14.433ZM148.572 155.295C113.31 155.295 84.7235 126.638 84.7235 91.2862C84.7235 55.9355 113.31 27.2772 148.572 27.2772C183.834 27.2772 212.42 55.9342 212.42 91.2862C212.42 126.637 183.835 155.295 148.572 155.295Z" fill="#3F444F"/>
<path d="M45.5465 63.415C45.5465 63.415 48.961 70.634 46.6109 71.065C43.383 71.6582 42.0767 65.6782 42.0767 65.6782L45.5465 63.415Z" fill="#16202E"/>
<path d="M58.1676 144.602C58.1676 144.602 60.338 147.532 60.0408 147.996C59.7435 148.46 57.4598 148.527 56.0705 147.996C54.6812 147.465 54.6481 144.032 54.0191 142.556C53.7564 141.938 54.319 140.116 55.1112 139.984C55.9033 139.853 56.7645 140.241 56.7645 140.241C56.7645 140.241 55.942 142.318 58.1676 144.602Z" fill="#1D3B54"/>
<path d="M56.7783 140.216C56.7783 140.216 57.2345 141.463 57.4018 142.655C57.54 143.643 58.9487 145.74 58.8823 146.006C58.816 146.272 57.0299 146.512 56.3014 145.827C55.5743 145.142 55.1056 143.154 54.9453 141.965C54.796 140.856 54.608 140.309 54.608 140.309C54.608 140.309 56.083 139.487 56.7783 140.216Z" fill="#EEA886"/>
<path d="M53.961 142.299V145.366H54.3577V142.994L53.961 142.299Z" fill="#1D3B54"/>
<path d="M39.2746 144.65C39.2746 144.65 41.3675 147.532 41.0689 147.996C40.7717 148.46 38.488 148.527 37.0987 147.996C35.7094 147.465 35.6762 144.032 35.0473 142.556C34.7846 141.938 35.3472 140.116 36.1393 139.984C36.9315 139.853 37.859 140.268 37.859 140.268C37.859 140.268 37.049 142.367 39.2746 144.65Z" fill="#1D3B54"/>
<path d="M37.8591 140.268C37.8591 140.268 38.0249 141.628 38.289 142.59C38.553 143.551 39.9755 145.74 39.9105 146.006C39.8442 146.272 38.0581 146.512 37.3296 145.827C36.6025 145.142 36.0398 143.163 35.9735 141.965C35.9071 140.766 36.1394 139.984 36.1394 139.984C36.1394 139.984 37.1651 139.538 37.8591 140.268Z" fill="#EEA886"/>
<path d="M34.9891 142.299V145.366H35.3859V142.994L34.9891 142.299Z" fill="#1D3B54"/>
<path d="M53.5698 100.122C53.5698 100.122 53.9776 100.513 54.1186 100.879C54.2306 101.169 54.6038 101.551 54.7808 101.77C54.9577 101.989 55.6171 103.012 55.7111 103.296C55.7498 103.413 55.6987 104.216 55.8024 104.445C55.906 104.674 56.1756 105.11 55.9724 105.192C55.7692 105.274 55.4194 104.947 55.4194 104.947C55.4194 104.947 55.501 105.16 55.3462 105.286C55.0434 105.532 54.8181 105.433 54.8181 105.433C54.8181 105.433 54.7573 105.703 54.6052 105.775C54.2693 105.932 54.0536 105.831 54.0536 105.831C54.0536 105.831 53.9348 106.003 53.6873 106.057C53.3707 106.126 53.1606 105.885 53.1606 105.885C53.1606 105.885 52.7846 106.061 52.616 105.902C52.4473 105.742 52.4114 105.538 52.3146 105.38C52.2192 105.222 51.8211 103.686 52.0257 102.462C52.2303 101.238 51.2764 100.319 51.2764 100.319L53.5698 100.122Z" fill="#EEA886"/>
<path d="M56.9401 109.535H51.6677C51.1327 109.535 50.6973 109.099 50.6973 108.561V105.228C50.6973 104.692 51.1327 104.254 51.6677 104.254H56.9401C57.4751 104.254 57.9106 104.69 57.9106 105.228V108.561C57.9106 109.099 57.4751 109.535 56.9401 109.535ZM51.6677 104.909C51.4921 104.909 51.3484 105.053 51.3484 105.229V108.562C51.3484 108.738 51.4921 108.883 51.6677 108.883H56.9401C57.1157 108.883 57.2595 108.738 57.2595 108.562V105.229C57.2595 105.053 57.1157 104.909 56.9401 104.909H51.6677Z" fill="white"/>
<path d="M64.1949 108.105H44.413V122.313H64.1949V108.105Z" fill="white"/>
<path d="M45.9017 70.0852C45.9017 70.0852 44.8884 70.0991 44.4557 73.1369C44.023 76.1747 44.8428 77.4442 44.9396 78.7081C45.0377 79.972 46.5169 88.1348 46.557 88.4965C46.5971 88.8568 46.7961 93.2015 47.3726 94.3545C47.949 95.5076 52.1888 102.042 52.2455 102.368C52.3022 102.693 54.3039 101.23 54.3039 101.23C54.3039 101.23 50.9737 94.2409 50.7802 93.4426C50.5866 92.6458 49.2471 88.5727 49.4586 87.3296C49.6701 86.0865 48.8656 79.2292 48.943 78.4656C49.0204 77.7033 47.8426 70.5481 45.9017 70.0852Z" fill="#EEA886"/>
<path d="M45.9018 70.0852C45.9018 70.0852 44.8885 70.0991 44.4558 73.1369C44.0231 76.1747 44.4143 77.2682 44.6756 78.5848C44.9231 79.8279 45.7636 87.4349 45.8036 87.7952C45.8437 88.1555 46.8501 92.7414 47.3727 94.3545C47.7708 95.581 51.4756 102.025 51.6069 102.329C51.7396 102.635 54.5459 100.828 54.5459 100.828C54.5459 100.828 50.8494 93.5992 50.6572 92.801C50.4637 92.0041 49.8388 89.2434 49.8181 87.9823C49.7946 86.5008 48.8656 79.2292 48.943 78.4669C49.0205 77.7033 48.6417 70.6396 45.9018 70.0852Z" fill="#285173"/>
<path d="M55.4347 104.79C55.4347 104.79 55.0808 103.41 54.6384 103.205C54.196 102.998 54.2956 103.504 54.2956 103.504C54.2956 103.504 54.2057 103.004 53.7938 103.031C53.3818 103.059 53.5311 103.644 53.5311 103.644C53.5311 103.644 53.3597 103.282 52.9685 103.458C52.5773 103.634 52.8123 104.093 52.8123 104.093C52.8123 104.093 52.2842 103.715 52.157 104.23C51.9427 105.099 52.5911 105.914 52.5911 105.914C52.5911 105.914 52.7929 106.107 53.1565 105.911C53.1565 105.911 53.5836 106.389 54.0633 105.867C54.0633 105.867 54.7614 106.051 54.8292 105.466C54.8292 105.465 55.6489 105.581 55.4347 104.79Z" fill="#DB9C7C"/>
<path d="M48.3154 92.5751C48.3154 92.5751 50.1775 101.262 50.606 103.449C51.0332 105.635 52.2317 116.228 52.3603 118.029C52.4888 119.831 54.3039 126.617 54.2182 127.261C54.1325 127.904 57.012 140.669 57.012 140.669C57.012 140.669 54.0496 141.477 53.5505 140.932C53.1275 140.469 48.8697 128.797 48.8697 125.581C48.8697 121.135 45.5244 115.475 45.1014 114.48C41.1698 105.241 42.0103 102.272 41.4975 101.672C40.9846 101.072 40.939 102.043 40.6404 103.372C40.3404 104.701 39.7004 116.194 39.3147 117.654C38.929 119.112 39.229 124.044 39.0147 126.53C38.8004 129.018 38.5544 140.162 38.5544 140.162C38.5544 140.162 36.4075 140.656 35.3887 140.18C35.0943 140.042 34.3519 127.765 34.3104 124.806C34.2676 121.847 34.222 117.766 34.139 116.487C33.3469 104.225 31.3991 102.473 34.4666 93.7946C40.2077 77.5454 48.3154 92.5751 48.3154 92.5751Z" fill="#1F3F59"/>
<path d="M42.9282 68.9904C42.9282 68.9904 44.8829 69.9162 45.5617 70.052C46.2404 70.1878 48.8739 73.6178 49.3356 74.8693C49.7973 76.1221 49.3356 77.9999 48.3859 80.2049C47.4362 82.4098 48.332 83.1443 47.8966 85.3492C47.4625 87.5541 47.0823 92.2217 47.1639 93.4468C47.2454 94.6719 36.1822 94.9033 33.6566 92.6707C33.6566 92.6707 36.1946 88.8596 36.5209 88.3149C36.8471 87.7703 36.5748 84.8032 36.2762 84.0409C35.9776 83.2787 33.9897 76.797 33.9897 76.797C33.9897 76.797 32.364 71.819 33.8321 70.6756C35.1081 69.682 38.5862 69.3272 39.211 69.1096C39.8358 68.8948 41.6523 68.7992 42.9282 68.9904Z" fill="#EDDAD3"/>
<path d="M43.5531 73.3587L44.7406 71.9645L43.7093 68.2934C43.7093 68.2934 43.3623 70.3375 43.5531 73.3587Z" fill="#D6C5BE"/>
<path d="M43.553 71.4947V73.3587L41.2154 71.6083L43.553 71.4947Z" fill="#EEA886"/>
<path d="M43.5531 73.3587L42.5827 72.1544L39.4419 68.8602L38.2544 69.9093L43.5531 73.3587Z" fill="#D6C5BE"/>
<path d="M38.8586 69.1997C38.8586 69.1997 41.6026 73.3739 41.7339 75.2116C41.8653 77.0493 40.7137 90.7929 39.7931 95.211C38.871 99.6292 32.212 94.7135 32.212 94.7135C32.212 94.7135 36.6868 87.4529 34.9685 81.6379C33.2502 75.8241 32.6268 73.5001 32.6268 73.5001C32.6268 73.5001 33.2184 70.2627 35.3127 69.8067C37.1485 69.4076 38.8586 69.1997 38.8586 69.1997Z" fill="#285173"/>
<path d="M49.5167 75.4278C49.5167 75.4278 50.0116 77.1836 48.0832 81.0641C48.0832 81.0641 48.1136 86.031 48.1675 87.5818C48.2214 89.134 49.3163 94.7121 49.3163 94.7121L46.6815 96.1187C46.2972 96.3446 45.8216 96.0314 45.8755 95.588C46.416 91.1227 48.1717 74.186 44.377 69.6335L45.9004 70.0839C45.9018 70.0852 48.6071 72.304 49.5167 75.4278Z" fill="#285173"/>
<path d="M44.7405 71.9645L46.2376 72.3789L43.7092 68.2934L44.7405 71.9645Z" fill="#FAE6DE"/>
<path d="M48.538 80.0898C48.538 80.0898 48.6293 86.2902 48.2519 89.2795L48.0846 81.0627L48.538 80.0898Z" fill="#1D3B54"/>
<path d="M43.9194 66.9144C43.9194 66.9144 43.5365 70.4844 43.5517 71.8426C43.5517 71.8426 42.2522 73.2076 39.2566 69.3036C39.2566 69.3036 40.2312 67.4757 39.4971 64.9867C38.7658 62.4963 43.9194 66.9144 43.9194 66.9144Z" fill="#EEA886"/>
<path d="M37.9032 60.1528C37.9032 60.1528 37.4539 59.6123 37.2866 60.1569C37.1194 60.7016 37.6682 62.3217 37.7276 62.5559C37.7276 62.5559 38 63.465 38.1092 63.3486C38.2184 63.2322 37.9032 60.1528 37.9032 60.1528Z" fill="#EEA987"/>
<path d="M45.7525 60.2207C45.7525 60.2207 46.2018 59.6802 46.3691 60.2249C46.5363 60.7695 45.9875 62.3896 45.9281 62.6238C45.9281 62.6238 45.6558 63.5329 45.5465 63.4165C45.4387 63.3001 45.7525 60.2207 45.7525 60.2207Z" fill="#EEA987"/>
<path d="M42.5329 54.9752C42.5329 54.9752 46.6566 55.6113 46.0539 62.1235C45.4498 68.6357 41.8099 68.1187 41.5666 68.1132C41.3233 68.1076 37.9158 68.249 37.6199 60.3025C37.6213 60.3025 37.4831 54.4264 42.5329 54.9752Z" fill="#EEA987"/>
<path d="M38.4119 59.9144C38.4119 59.9144 42.989 61.2795 45.1801 60.8429C45.1801 60.8429 45.3197 61.6537 45.6349 61.7036C45.9501 61.7535 46.1105 60.1542 46.1105 60.1542C46.1105 60.1542 46.2183 54.8588 41.4394 54.8089C36.6604 54.759 37.6309 60.545 37.6309 60.545L37.6959 61.5345C37.6959 61.5331 38.3801 61.8033 38.4119 59.9144Z" fill="#16202E"/>
<path d="M39.9451 67.4923C39.9451 67.4923 41.3897 68.8643 43.6098 67.6046C43.6098 67.6046 42.9532 68.7036 41.7091 68.6759C40.4649 68.6495 39.9451 67.4923 39.9451 67.4923Z" fill="#A77860"/>
<path d="M42.5827 72.1544L41.2155 73.9518L38.4217 69.2579L39.5138 68.6398L42.5827 72.1544Z" fill="#FAE6DE"/>
<path d="M31.3922 99.6791C31.3922 99.6791 31.1972 100.556 31.6382 101.249C32.0792 101.942 32.0944 103.655 32.0004 104.128C31.905 104.6 31.4184 108.226 31.1889 108.474C30.9595 108.722 30.6305 108.12 30.694 107.773C30.7576 107.423 31.0479 104.374 31.0479 104.374C31.0479 104.374 30.4991 107.983 30.2517 108.17C30.0042 108.359 29.5757 108.244 29.5135 107.716C29.5135 107.716 28.7421 107.899 28.8347 107.003L29.0117 105.217C29.0117 105.217 28.7601 106.122 28.496 105.433C28.3564 105.067 28.7891 103.081 28.7518 102.659C28.7145 102.236 29.0739 100.781 29.0739 100.781L31.3922 99.6791Z" fill="#EEA886"/>
<path d="M35.5974 69.9758C34.8233 69.725 32.5755 70.3029 32.1912 72.638C31.8069 74.9718 31.6534 77.5634 31.2954 78.8204C30.9374 80.0774 29.8632 85.9257 29.79 86.8196C29.6628 88.3579 29.3932 89.9447 29.2716 92.4143C29.1499 94.8812 28.2224 100.917 28.2224 100.917L31.6963 101.177C31.6963 101.177 32.6806 93.5771 32.8285 91.5759C32.9487 89.9517 33.1879 88.491 34.1957 84.0368C34.1957 84.0368 35.878 79.5147 36.2361 78.5391C36.5927 77.562 39.0769 71.1039 35.5974 69.9758Z" fill="#285173"/>
<defs>
<linearGradient id="paint0_linear_234_2769" x1="169.474" y1="18.6595" x2="169.474" y2="71.243" gradientUnits="userSpaceOnUse">
<stop stop-color="#EDEDED"/>
<stop offset="1" stop-color="white"/>
</linearGradient>
<linearGradient id="paint1_linear_234_2769" x1="169.474" y1="41.2028" x2="169.474" y2="85.1809" gradientUnits="userSpaceOnUse">
<stop stop-color="#D4D4D4"/>
<stop offset="1" stop-color="white"/>
</linearGradient>
<linearGradient id="paint2_linear_234_2769" x1="127.309" y1="91.5289" x2="184.446" y2="91.5289" gradientUnits="userSpaceOnUse">
<stop stop-color="#FF9F55"/>
<stop offset="1" stop-color="#FFD255"/>
</linearGradient>
</defs>
</svg>
