<svg width="30" height="27" viewBox="0 0 30 27" fill="none" xmlns="http://www.w3.org/2000/svg">
<path d="M1.06 16.3675L3.65375 18.2125C4.87 19.0775 6.305 19.5188 7.7475 19.5188C8.7825 19.5188 9.8225 19.2913 10.7887 18.8313L28.2038 10.485C29.755 9.74376 30.43 7.87251 29.7075 6.31251C28.9838 4.74876 27.1213 4.06876 25.5588 4.78876L25.55 4.79376L20.5475 7.20876C20.535 7.19876 20.5225 7.19001 20.5087 7.18126L11.4813 1.36501C10.5638 0.682507 9.34625 0.560007 8.30375 1.04001L7.3275 1.49876C6.755 1.76751 6.36 2.30251 6.27 2.92876C6.18 3.55626 6.40875 4.18001 6.88 4.59751L13.5625 10.5788L7.2375 13.6313L3.19 12.145C2.2175 11.7925 1.12625 12.1025 0.4775 12.9313C0.09375 13.4225 -0.06625 14.0425 0.02625 14.6775C0.125 15.355 0.5 15.97 1.06 16.3675ZM7.71125 3.66501C7.55125 3.52251 7.47625 3.32001 7.50625 3.10751C7.53625 2.89501 7.665 2.72126 7.85875 2.63126L8.83125 2.17501C9.45375 1.88376 10.185 1.95876 10.7687 2.39251L19.23 7.84501L14.7787 9.99376L7.71125 3.66501ZM1.46125 13.7C1.68875 13.4113 2.02625 13.25 2.3725 13.25C2.5025 13.25 2.6325 13.2738 2.75875 13.32L7.055 14.8975C7.21375 14.9563 7.39 14.9463 7.5425 14.8725L26.0888 5.92251C27.0238 5.49251 28.14 5.90001 28.575 6.83751C29.0113 7.78001 28.6025 8.91001 27.665 9.35751L10.25 17.7038C8.3475 18.61 6.0975 18.4163 4.37875 17.195L1.785 15.35C1.5025 15.15 1.31375 14.8388 1.26375 14.4975C1.22125 14.2038 1.29125 13.92 1.46375 13.7H1.46125ZM30 26.375C30 26.72 29.72 27 29.375 27H0.625C0.28 27 0 26.72 0 26.375C0 26.03 0.28 25.75 0.625 25.75H29.375C29.72 25.75 30 26.03 30 26.375Z" fill="#333A51"/>
</svg>
