<svg width="30" height="28" viewBox="0 0 30 28" fill="none" xmlns="http://www.w3.org/2000/svg">
<path d="M24.375 0.25H5.625C2.52375 0.25 0 2.77375 0 5.875V22.125C0 25.2262 2.52375 27.75 5.625 27.75H24.375C27.4762 27.75 30 25.2262 30 22.125V5.875C30 2.77375 27.4762 0.25 24.375 0.25ZM5.625 1.5H24.375C26.7875 1.5 28.75 3.4625 28.75 5.875V9H1.25V5.875C1.25 3.4625 3.2125 1.5 5.625 1.5ZM24.375 26.5H5.625C3.2125 26.5 1.25 24.5375 1.25 22.125V10.25H28.75V22.125C28.75 24.5375 26.7875 26.5 24.375 26.5ZM3.75 5.25C3.75 4.56 4.31 4 5 4C5.69 4 6.25 4.56 6.25 5.25C6.25 5.94 5.69 6.5 5 6.5C4.31 6.5 3.75 5.94 3.75 5.25ZM7.5 5.25C7.5 4.56 8.06 4 8.75 4C9.44 4 10 4.56 10 5.25C10 5.94 9.44 6.5 8.75 6.5C8.06 6.5 7.5 5.94 7.5 5.25ZM11.25 5.25C11.25 4.56 11.81 4 12.5 4C13.19 4 13.75 4.56 13.75 5.25C13.75 5.94 13.19 6.5 12.5 6.5C11.81 6.5 11.25 5.94 11.25 5.25ZM23.75 15.875C23.75 16.22 23.47 16.5 23.125 16.5H6.875C6.53 16.5 6.25 16.22 6.25 15.875C6.25 15.53 6.53 15.25 6.875 15.25H23.125C23.47 15.25 23.75 15.53 23.75 15.875ZM18.75 20.875C18.75 21.22 18.47 21.5 18.125 21.5H6.875C6.53 21.5 6.25 21.22 6.25 20.875C6.25 20.53 6.53 20.25 6.875 20.25H18.125C18.47 20.25 18.75 20.53 18.75 20.875Z" fill="#333A51"/>
</svg>
