<svg width="20" height="18" viewBox="0 0 20 18" fill="none" xmlns="http://www.w3.org/2000/svg">
<path d="M1 4C1 2.34315 2.34315 1 4 1H5.06666C5.93215 1 6.77428 1.28071 7.46667 1.8L8.93333 2.9C9.62572 3.41929 10.4679 3.7 11.3333 3.7H16C17.6569 3.7 19 5.04315 19 6.7V13.3C19 14.9569 17.6569 16.3 16 16.3H4C2.34315 16.3 1 14.9569 1 13.3V4Z" stroke="#333A51" stroke-width="1.5"/>
<path d="M4.6001 1H12.0083C13.1 1 14.1443 1.4462 14.8989 2.23511L16.3001 3.7" stroke="#333A51" stroke-width="1.5"/>
<path d="M12.5456 9.84557L10.3536 7.65354C10.1583 7.45828 9.84171 7.45828 9.64645 7.65354L7.45442 9.84557" stroke="#333A51" stroke-width="1.5" stroke-linecap="round"/>
<path d="M10 8.20001V12.7" stroke="#333A51" stroke-width="1.5" stroke-linecap="round"/>
</svg>
