<svg width="30" height="30" viewBox="0 0 30 30" fill="none" xmlns="http://www.w3.org/2000/svg">
<path d="M26.25 14.3749V24.3749C26.25 27.4761 23.7262 29.9999 20.625 29.9999H5.625C2.52375 29.9999 0 27.4761 0 24.3749V9.37486C0 6.27361 2.52375 3.74986 5.625 3.74986H16.875C17.22 3.74986 17.5 4.02986 17.5 4.37486C17.5 4.71986 17.22 4.99986 16.875 4.99986H5.625C3.2125 4.99986 1.25 6.96236 1.25 9.37486V24.3749C1.25 26.7874 3.2125 28.7499 5.625 28.7499H20.625C23.0375 28.7499 25 26.7874 25 24.3749V14.3749C25 14.0299 25.28 13.7499 25.625 13.7499C25.97 13.7499 26.25 14.0299 26.25 14.3749ZM28.9525 6.11611L17.4738 18.3974C17.4137 19.3924 17.0387 20.3286 16.3538 21.0786C15.5262 21.9824 14.35 22.5011 13.125 22.5011H8.125C7.51875 22.5011 6.965 22.2211 6.6075 21.7361C6.24875 21.2486 6.14625 20.6374 6.32625 20.0574C6.95125 18.0449 8.875 14.4711 12.1163 13.8449C12.345 13.8011 12.575 13.7949 12.805 13.7861C23.8288 1.10611 23.8675 1.06736 23.8875 1.04736C25.285 -0.348888 27.5575 -0.345138 28.9525 1.04986C30.3463 2.44611 30.3463 4.71986 28.9525 6.11611ZM17.2763 16.7761L19.8587 14.0136C19.455 12.5386 18.165 11.4386 16.6425 11.2786C15.8125 12.2324 15.0125 13.1536 14.2963 13.9774C14.82 14.1349 15.325 14.3649 15.7712 14.7024C16.495 15.2474 17.0063 15.9661 17.2763 16.7774V16.7761ZM16.2362 17.8374C16.1613 16.9936 15.7288 16.2349 15.0175 15.6986C14.2525 15.1224 13.28 14.8899 12.3525 15.0724C9.69 15.5861 8.06125 18.6799 7.51875 20.4274C7.4575 20.6236 7.4925 20.8299 7.6125 20.9936C7.7325 21.1561 7.92 21.2499 8.12375 21.2499H13.1237C13.9987 21.2499 14.8387 20.8799 15.43 20.2349C16.0287 19.5799 16.315 18.7286 16.2362 17.8374ZM28.0675 1.93361C27.16 1.02361 25.68 1.02361 24.7712 1.93111C24.6775 2.03736 21.0513 6.20736 17.585 10.1936C19.0175 10.5974 20.2125 11.6274 20.8162 12.9886L28.0525 5.24736C28.9737 4.32361 28.9737 2.84361 28.0662 1.93486L28.0675 1.93361Z" fill="#01888A"/>
</svg>
