<svg width="30" height="30" viewBox="0 0 30 30" fill="none" xmlns="http://www.w3.org/2000/svg">
<path d="M28.8862 18.9175L17.8713 13.9188C16.7337 13.5338 15.4987 13.82 14.6525 14.6663C13.7863 15.5312 13.5238 16.7787 13.9725 18.0562L18.9025 28.9C19.2 29.5538 19.8563 29.985 20.5863 29.9988H20.61C21.3238 29.9988 21.9662 29.6025 22.2875 28.9625L24.5075 24.5213L28.95 22.3013C29.5925 21.9788 29.9988 21.3075 29.9862 20.59C29.9737 19.8713 29.5425 19.2137 28.8875 18.9175H28.8862ZM28.39 21.1825L23.5763 23.5888L21.17 28.4025C21.0625 28.6163 20.8638 28.75 20.625 28.75C20.3862 28.7463 20.14 28.6012 20.0413 28.3825L15.1325 17.5912C14.8637 16.82 15.01 16.0763 15.5375 15.55C15.8875 15.1987 16.35 15.0087 16.8475 15.0087C17.0688 15.0087 17.2975 15.0463 17.525 15.125L28.3687 20.055C28.5863 20.1537 28.73 20.3725 28.7337 20.6112C28.7375 20.85 28.6038 21.075 28.39 21.1825ZM15 0C14.9937 0 14.9875 0 14.98 0H14.9788C6.7175 0.01125 0 6.73625 0 15C0 23.2638 6.72875 30 15 30C15.2175 30 15.435 29.995 15.6512 29.9862C15.9963 29.9713 16.2638 29.68 16.25 29.335C16.235 28.9913 15.9375 28.715 15.6 28.7362C15.485 28.7412 15.3687 28.745 15.2537 28.7463C14.5437 28.0338 11.8325 25.1588 10.1425 21.2488H11.8763C12.2213 21.2488 12.5013 20.9688 12.5013 20.6238C12.5013 20.2788 12.2213 19.9987 11.8763 19.9987H9.65375C9.1075 18.4425 8.75125 16.7563 8.75125 14.9987C8.75125 13.2413 9.1075 11.555 9.655 9.99875H20.3512C20.5788 10.6462 20.7738 11.3175 20.9225 12.005C20.9862 12.2975 21.245 12.4987 21.5325 12.4987C21.5763 12.4987 21.62 12.495 21.665 12.485C22.0025 12.4125 22.2162 12.08 22.1437 11.7425C22.015 11.1463 21.855 10.565 21.6725 9.99875H27.81C28.4175 11.5487 28.7512 13.2362 28.7512 14.9987C28.7512 15.1987 28.7475 15.3975 28.7387 15.5963C28.7237 15.9413 28.9913 16.2325 29.3363 16.2475C29.6888 16.28 29.9737 15.9963 29.9875 15.65C29.9975 15.4338 30.0012 15.2163 30.0012 14.9975C30 6.72875 23.2712 0 15 0ZM1.25 15C1.25 13.2375 1.58375 11.55 2.19125 10H8.3225C7.82 11.5575 7.5 13.2388 7.5 15C7.5 16.7612 7.82 18.4425 8.3225 20H2.19125C1.58375 18.45 1.25 16.7625 1.25 15ZM8.77375 21.25C10.1063 24.5863 12.1775 27.2313 13.4525 28.6625C8.78125 28.1375 4.81 25.2625 2.75375 21.25H8.77375ZM8.77375 8.75H2.75375C4.81 4.7375 8.78125 1.8625 13.4537 1.3375C12.1788 2.76875 10.1063 5.41375 8.77375 8.75ZM10.1437 8.75C11.6737 5.21375 14.04 2.52 15 1.5125C15.9625 2.52125 18.3312 5.21625 19.86 8.75H10.1437ZM21.2188 8.75C19.8838 5.41 17.8162 2.7675 16.5437 1.3375C21.2162 1.8625 25.1875 4.7375 27.245 8.75H21.2188Z" fill="#333A51"/>
</svg>
