<svg width="18" height="18" viewBox="0 0 18 18" fill="none" xmlns="http://www.w3.org/2000/svg">
<path d="M6 9H5.25H6ZM12 9H12.75H12ZM9 12V12.75V12ZM10.5521 16.3392L10.7065 17.0731L10.5521 16.3392ZM7.44795 16.3392L7.29351 17.0731L7.44795 16.3392ZM2.05396 6.1659L1.35964 5.88231H1.35964L2.05396 6.1659ZM1.66079 10.5521L0.926858 10.7065L1.66079 10.5521ZM7.44795 1.66079L7.29351 0.926859L7.44795 1.66079ZM10.5521 1.66079L10.7065 0.926859L10.5521 1.66079ZM15.8856 6.19296L16.1033 6.91067L15.8856 6.19296ZM2.11348 6.19269L1.89577 6.9104L2.11348 6.19269ZM15.2525 6.45133C15.573 7.23673 15.75 8.09676 15.75 9H17.25C17.25 7.89911 17.034 6.84681 16.6413 5.88457L15.2525 6.45133ZM15.75 9C15.75 9.47991 15.7 9.94733 15.6053 10.3976L17.0731 10.7065C17.1891 10.1552 17.25 9.58432 17.25 9H15.75ZM15.6053 10.3976C15.057 13.0033 13.0033 15.057 10.3976 15.6053L10.7065 17.0731C13.8941 16.4024 16.4024 13.8941 17.0731 10.7065L15.6053 10.3976ZM10.3976 15.6053C9.94733 15.7 9.47991 15.75 9 15.75V17.25C9.58432 17.25 10.1552 17.1891 10.7065 17.0731L10.3976 15.6053ZM9 15.75C8.52009 15.75 8.05267 15.7 7.60238 15.6053L7.29351 17.0731C7.84476 17.1891 8.41568 17.25 9 17.25V15.75ZM2.25 9C2.25 8.09606 2.42728 7.23539 2.74828 6.44948L1.35964 5.88231C0.966371 6.84517 0.75 7.89825 0.75 9H2.25ZM7.60238 15.6053C4.99671 15.057 2.943 13.0033 2.39471 10.3976L0.926858 10.7065C1.59759 13.8941 4.10594 16.4024 7.29351 17.0731L7.60238 15.6053ZM2.39471 10.3976C2.29996 9.94733 2.25 9.47991 2.25 9H0.75C0.75 9.58432 0.810865 10.1552 0.926858 10.7065L2.39471 10.3976ZM2.74828 6.44948C3.5841 4.40308 5.39608 2.85896 7.60238 2.39471L7.29351 0.926859C4.59258 1.49519 2.38072 3.38233 1.35964 5.88231L2.74828 6.44948ZM7.60238 2.39471C8.05267 2.29996 8.52009 2.25 9 2.25V0.75C8.41568 0.75 7.84476 0.810865 7.29351 0.926859L7.60238 2.39471ZM9 2.25C9.47991 2.25 9.94733 2.29996 10.3976 2.39472L10.7065 0.926859C10.1552 0.810865 9.58432 0.75 9 0.75V2.25ZM10.3976 2.39472C12.6046 2.85911 14.417 4.40401 15.2525 6.45133L16.6413 5.88457C15.6206 3.38346 13.4082 1.49536 10.7065 0.926859L10.3976 2.39472ZM9.83755 1.88877C10.044 2.53572 10.8057 5.01723 11.1174 7.29209L12.6035 7.0885C12.2732 4.67766 11.4771 2.09267 11.2666 1.4328L9.83755 1.88877ZM11.1174 7.29209C11.2008 7.90088 11.25 8.48181 11.25 9H12.75C12.75 8.39309 12.6928 7.74065 12.6035 7.0885L11.1174 7.29209ZM15.6679 5.47524C14.8478 5.724 13.3093 6.16022 11.7243 6.45275L11.9965 7.92784C13.6606 7.62072 15.2595 7.16661 16.1033 6.91067L15.6679 5.47524ZM11.7243 6.45275C10.7621 6.63034 9.80854 6.75 9 6.75V8.25C9.93811 8.25 10.9922 8.1132 11.9965 7.92784L11.7243 6.45275ZM11.25 9C11.25 9.76857 11.1418 10.669 10.9782 11.5844L12.4547 11.8485C12.6261 10.8901 12.75 9.89291 12.75 9H11.25ZM10.9782 11.5844C10.6195 13.5906 10.0161 15.5515 9.83755 16.1112L11.2666 16.5672C11.4514 15.9878 12.0785 13.9526 12.4547 11.8485L10.9782 11.5844ZM16.1112 9.83754C15.5515 10.0161 13.5906 10.6195 11.5844 10.9782L11.8485 12.4547C13.9526 12.0785 15.9878 11.4514 16.5672 11.2666L16.1112 9.83754ZM11.5844 10.9782C10.669 11.1418 9.76857 11.25 9 11.25V12.75C9.89291 12.75 10.8901 12.6261 11.8485 12.4547L11.5844 10.9782ZM9 11.25C8.23143 11.25 7.33104 11.1418 6.41555 10.9782L6.15154 12.4547C7.10989 12.6261 8.10709 12.75 9 12.75V11.25ZM6.41555 10.9782C4.4094 10.6195 2.44851 10.0161 1.88877 9.83754L1.4328 11.2666C2.01223 11.4514 4.04738 12.0785 6.15154 12.4547L6.41555 10.9782ZM5.25 9C5.25 9.89291 5.37391 10.8901 5.54526 11.8485L7.02184 11.5844C6.85815 10.669 6.75 9.76857 6.75 9H5.25ZM5.54526 11.8485C5.92148 13.9526 6.54856 15.9878 6.73344 16.5672L8.16246 16.1112C7.98386 15.5515 7.38054 13.5906 7.02184 11.5844L5.54526 11.8485ZM6.73344 1.4328C6.52289 2.09267 5.72679 4.67766 5.39652 7.0885L6.88264 7.29209C7.19428 5.01723 7.95603 2.53572 8.16246 1.88877L6.73344 1.4328ZM5.39652 7.0885C5.30718 7.74066 5.25 8.39309 5.25 9H6.75C6.75 8.48181 6.79924 7.90088 6.88264 7.29209L5.39652 7.0885ZM9 6.75C8.19146 6.75 7.23795 6.63034 6.2757 6.45275L6.00346 7.92784C7.00782 8.1132 8.06189 8.25 9 8.25V6.75ZM6.2757 6.45275C4.69008 6.16011 3.15111 5.72369 2.33118 5.47498L1.89577 6.9104C2.7394 7.16629 4.33879 7.62061 6.00346 7.92784L6.2757 6.45275ZM15.6013 5.50233C15.6211 5.49202 15.6437 5.48259 15.6679 5.47524L16.1033 6.91067C16.1702 6.89039 16.2331 6.86441 16.2925 6.83356L15.6013 5.50233ZM1.66266 6.80573C1.73412 6.84943 1.81193 6.88496 1.89577 6.9104L2.33118 5.47498C2.37287 5.48762 2.41138 5.50535 2.44525 5.52606L1.66266 6.80573Z" fill="#01888A"/>
</svg>
